<?xml version="1.0" encoding="utf-8"?>
<!-- Generator: Adobe Illustrator 17.0.0, SVG Export Plug-In . SVG Version: 6.00 Build 0)  -->
<!DOCTYPE svg PUBLIC "-//W3C//DTD SVG 1.1//EN" "http://www.w3.org/Graphics/SVG/1.1/DTD/svg11.dtd">
<svg version="1.1" id="Layer_1" xmlns="http://www.w3.org/2000/svg" xmlns:xlink="http://www.w3.org/1999/xlink" x="0px" y="0px"
	 width="894.233px" height="533.92px" viewBox="0 0 894.233 533.92" enable-background="new 0 0 894.233 533.92"
	 xml:space="preserve">
<g>
	<path fill="#B8CFE8" d="M190.675,469.686H12.76c-7.047,0-12.76,5.713-12.76,12.76v38.714c0,7.047,5.713,12.76,12.76,12.76h142.607
		C159.09,508.373,171.985,485.807,190.675,469.686z"/>
	<g>
		<path fill="#B8CFE8" d="M44.137,431.507h431.308c7.049,0,12.76-5.713,12.76-12.76V38.281C488.206,17.139,471.068,0,449.926,0
			H69.658C48.515,0,31.377,17.139,31.377,38.281v380.464C31.377,425.794,37.089,431.507,44.137,431.507z"/>
		<path fill="#B8CFE8" d="M881.473,469.686h-31.054V296.286c0-20.358-6.087-40.251-17.478-57.123l-77.661-115.024
			c-18.979-28.111-50.682-44.96-84.602-44.96H550.212c-14.094,0-25.521,11.426-25.521,25.521v364.986H327.443
			c18.69,16.121,31.583,38.689,35.308,64.234h208.029c7.389-50.676,51.005-89.755,103.698-89.755
			c52.682,0,96.296,39.077,103.686,89.755h103.31c7.047,0,12.76-5.713,12.76-12.76v-38.714
			C894.233,475.399,888.52,469.686,881.473,469.686z M754.353,262.213H595.381c-7.047,0-12.76-5.712-12.76-12.76v-88.244
			c0-7.047,5.715-12.76,12.76-12.76h96.868c4.153,0,8.045,2.021,10.436,5.417l62.101,88.244
			C770.735,250.563,764.689,262.213,754.353,262.213z"/>
	</g>
</g>
</svg>
