<?xml version="1.0" encoding="utf-8"?>
<!-- Generator: Adobe Illustrator 17.0.0, SVG Export Plug-In . SVG Version: 6.00 Build 0)  -->
<!DOCTYPE svg PUBLIC "-//W3C//DTD SVG 1.1//EN" "http://www.w3.org/Graphics/SVG/1.1/DTD/svg11.dtd">
<svg version="1.1" id="Layer_1" xmlns="http://www.w3.org/2000/svg" xmlns:xlink="http://www.w3.org/1999/xlink" x="0px" y="0px"
	 width="250.694px" height="282.423px" viewBox="0 0 250.694 282.423" enable-background="new 0 0 250.694 282.423"
	 xml:space="preserve">
<path fill="#B6CEE8" d="M245.326,262.011c0,6.627-5.373,12-12,12H20.255c-6.627,0-12-5.373-12-12V80.34c0-6.627,5.373-12,12-12
	h213.071c6.627,0,12,5.373,12,12V262.011z"/>
<circle fill="#7A97C5" stroke="#000000" stroke-miterlimit="10" cx="124" cy="175.328" r="83"/>
<rect x="9.847" y="8.961" fill="#7A97C5" width="232" height="51.75"/>
<g>
	<path fill="#B6CEE8" d="M250.727,57.407V23.866c0-13.039-10.617-23.651-23.656-23.651H23.684
		c-13.039,0-23.651,10.612-23.651,23.651v33.541c0,5.186,3.486,9.527,8.222,10.933C3.262,72.681,0.033,79,0.033,86.116v172.881
		c0,13.034,10.607,23.64,23.651,23.64H227.07c13.039,0,23.656-10.607,23.656-23.651V86.116c0-7.121-3.229-13.44-8.222-17.776
		C247.236,66.934,250.727,62.593,250.727,57.407L250.727,57.407z M10.725,23.866c0-7.148,5.811-12.959,12.954-12.959h203.386
		c7.148,0,12.964,5.811,12.964,12.959v33.541c0,0.419-0.34,0.759-0.759,0.759l0,0H11.479c-0.413,0.004-0.75-0.327-0.754-0.74
		c0-0.006,0-0.013,0-0.019V23.866z M240.034,258.992c0,7.148-5.817,12.959-12.964,12.959H23.684
		c-7.142,0-12.959-5.811-12.959-12.948V86.116c0-7.148,5.811-12.959,12.959-12.959H227.07c7.148,0,12.964,5.811,12.964,12.959
		C240.029,86.116,240.029,258.992,240.034,258.992z"/>
	<path fill="#B6CEE8" d="M42.235,47.897h51.103c4.838,0,8.778-3.935,8.778-8.778v-9.152c0-4.838-3.94-8.778-8.778-8.778H42.235
		c-4.833,0-8.773,3.935-8.778,8.778v9.152C33.457,43.957,37.397,47.897,42.235,47.897z M38.803,29.971
		c0.003-1.895,1.537-3.431,3.432-3.438h51.103c1.895,0.002,3.43,1.537,3.432,3.432v9.152c-0.002,1.895-1.537,3.43-3.432,3.432
		H42.235c-1.895-0.002-3.43-1.537-3.432-3.432C38.803,39.117,38.803,29.971,38.803,29.971z M161.976,47.891h4.571
		c4.838,0,8.784-3.935,8.784-8.778v-9.152c0-4.838-3.94-8.778-8.784-8.778h-4.571c-4.833,0-8.773,3.935-8.773,8.778v9.152
		C153.209,43.951,157.143,47.891,161.976,47.891z M158.549,29.961c-0.001-1.894,1.533-3.43,3.427-3.432h4.571
		c1.896,0.001,3.434,1.536,3.438,3.432v9.152c-0.003,1.897-1.541,3.433-3.438,3.432h-4.571c-1.893-0.003-3.427-1.539-3.427-3.432
		V29.961z M195.282,47.891h4.571c4.827,0,8.768-3.935,8.784-8.778v-9.152c0-4.838-3.94-8.778-8.784-8.778h-4.571
		c-4.838,0-8.778,3.935-8.778,8.778v9.152C186.509,43.951,190.444,47.891,195.282,47.891z M191.856,29.961
		c0.002-1.895,1.537-3.43,3.432-3.432h4.571c1.896,0.001,3.434,1.536,3.438,3.432v9.147c-0.006,1.896-1.542,3.432-3.438,3.438
		h-4.571c-1.895-0.002-3.43-1.537-3.432-3.432V29.961z M213.919,166.451h-0.251c-3.737-46.067-42.352-82.431-89.365-82.431
		c-49.478,0-89.734,40.256-89.734,89.734s40.256,89.734,89.734,89.734c46.757,0,85.227-35.968,89.328-81.672h0.289
		c3.371,0.001,6.104-2.732,6.105-6.103c0-0.003,0-0.005,0-0.008v-3.154c0-3.369-2.731-6.1-6.1-6.1
		C213.923,166.451,213.921,166.451,213.919,166.451z M124.308,252.796c-43.581,0-79.042-35.461-79.042-79.042
		s35.461-79.042,79.042-79.042c41.117,0,74.968,31.569,78.673,71.739h-16.199c-3.635-31.269-30.243-55.626-62.474-55.626
		c-34.701,0-62.929,28.233-62.929,62.929s28.227,62.929,62.929,62.929c31.964,0,58.379-23.966,62.357-54.867h16.279
		C198.886,221.628,165.168,252.796,124.308,252.796L124.308,252.796z M175.785,181.816h5.469
		c-3.94,27.939-27.944,49.521-56.952,49.521c-31.75,0-57.583-25.832-57.583-57.583s25.832-57.583,57.583-57.583
		c29.275,0,53.461,21.972,57.069,50.28h-5.587c-3.371-0.001-6.104,2.73-6.105,6.101c0,0.001,0,0.003,0,0.004v3.154
		C169.68,179.082,172.413,181.815,175.785,181.816L175.785,181.816z"/>
	<path fill="#B6CEE8" d="M92.67,132.322c-15.204,10.403-18.513,25.426-18.647,26.062c-0.305,1.444,0.618,2.861,2.062,3.166
		c0.183,0.039,0.37,0.058,0.558,0.058c1.263-0.002,2.353-0.886,2.614-2.122c0.027-0.128,2.983-13.542,16.434-22.748
		c1.219-0.834,1.529-2.497,0.695-3.716S93.894,131.488,92.67,132.322z"/>
</g>
</svg>
