<svg xmlns="http://www.w3.org/2000/svg" width="532.592" height="560" viewBox="213.704 0 532.592 560"><path fill="#0E1B45" d="M745.935 248.239c-7.323-45.39-91.354-54.175-119.096-90.843-28.845-38.155 19.818-120.324-15.759-152.278-32.704-29.373-108.999 76.619-150.645 90.742-25.328 8.593-104.648-32.725-130.65-39.034-108.292-26.299-154.703 71.173-78.464 205.774 14.194 25.064 45.162 76.138 53.718 103.659 15.106 48.529-87.642 142.706-54.789 181.476 39.559 46.677 159.205-54.716 220.322-57.709 46.162-2.266 113.716 75.767 156.268 57.709 41.5-17.604 14.36-125.608 26.306-169.103 11.133-40.612 99.479-88.819 92.789-130.393zM327.031 110.376c-.415-.046-.777.026-1.196-.01-24.313-2.131-42.386 4.959-50.89 20.225-12.677 22.736-3.392 59.75 23.785 97.805 1.543 2.167 2.921 4.325 4.567 6.491 3.117 4.071 2.356 9.899-1.704 13.017a9.341 9.341 0 0 1-5.654 1.913 9.23 9.23 0 0 1-7.364-3.635c-36.007-46.975-47.172-93.56-29.86-124.629 12.295-22.064 37.82-32.832 70.166-29.653 5.096.508 8.829 5.06 8.321 10.163-.523 5.102-4.966 8.857-10.171 8.313z"/></svg>