<svg xmlns="http://www.w3.org/2000/svg" width="193.333" height="356.805" viewBox="0 0 193.333 356.805"><path fill="#B6CEE7" d="M90.376 46.768c-.306-1.084-.562-2.419-.76-3.57-14.809.706-25.557 4.22-26.289 4.476-2.151.75-3.294 3.006-2.546 5.161a4.132 4.132 0 0 0 3.901 2.774c.45 0 .909.697 1.355.544.153-.057 8.649-3.129 20.755-3.129h15.235c6.069 0 12.463.887 18.833 3.121 2.149.744 4.508-.768 5.262-2.919.754-2.151-.378-4.701-2.529-5.453-8.757-3.069-17.471-4.435-25.458-4.724a.426.426 0 0 1-.016-.099c-1.625-8.01 4.714-8.758 11.039-12.229 5.831-3.2 8.943-9.699 7.782-16.275C114.112-1.521 91.694-2.908 80.149 3.781c-4.604 2.665-.45 9.806 4.165 7.128 5.322-3.084 11.935-3.232 17.757-1.647 7 1.908 9.467 10.252 2.919 14.328-4.201 2.609-8.976 3.609-12.562 7.225C89.159 34.11 88.88 38.683 89.616 43c.197 1.151.45 2.29.76 3.376.083.288.252.474.371.718 1.537 3.097 5.873 2.593 7.284.004a3.8 3.8 0 0 0 .403-1.218c-.008.752-.121 1.478-.403 1.994-1.411 2.588-5.744 3.475-7.284.379-15.1.59-26.065 4.77-26.065 4.77s10.965-4.566 26.065-5.149c-.118-.243-.287-.816-.371-1.106z"/><path clip-rule="evenodd" fill="none" stroke="#BFD5E6" stroke-width="5" stroke-miterlimit="10" d="M26.404 55.024h140.171c13.121-2 23.758 6.768 23.758 17.583v280.039c0 .721-.709 1.306-1.584 1.306H4.231c-.875 0-1.584-.585-1.584-1.306V72.607c0-10.815 10.637-19.583 23.757-17.583z"/><path clip-rule="evenodd" fill="none" stroke="#BFD5E6" stroke-width="5" stroke-miterlimit="10" d="M96.49 54.738h1.135v299.214H96.49z"/></svg>