<svg xmlns="http://www.w3.org/2000/svg" width="555.5" height="556.5" viewBox="203 0 555.5 556.5"><g fill="#FFF"><path d="M482 8C332.019 8 210 130.019 210 280s122.019 272 272 272 272-122.019 272-272S631.981 8 482 8zm0 525.867c-139.98 0-253.867-113.886-253.867-253.867S342.02 26.133 482 26.133 735.867 140.02 735.867 280 621.98 533.867 482 533.867z"/><path d="M482 556.5c-152.462 0-276.5-124.037-276.5-276.5C205.5 127.538 329.538 3.5 482 3.5c152.463 0 276.5 124.038 276.5 276.5 0 152.463-124.037 276.5-276.5 276.5zm0-544c-147.5 0-267.5 120-267.5 267.5s120 267.5 267.5 267.5 267.5-120 267.5-267.5S629.5 12.5 482 12.5zm0 525.866c-142.464 0-258.367-115.902-258.367-258.366S339.536 21.633 482 21.633 740.366 137.536 740.366 280 624.464 538.366 482 538.366zm0-507.733c-137.501 0-249.367 111.865-249.367 249.367 0 137.501 111.865 249.366 249.367 249.366 137.501 0 249.366-111.865 249.366-249.366 0-137.501-111.865-249.367-249.366-249.367z"/><path d="M482 62.4a9.065 9.065 0 0 0-9.067 9.067V280h-136c-5.005 0-9.067 4.053-9.067 9.067s4.062 9.067 9.067 9.067H482a9.065 9.065 0 0 0 9.067-9.067v-217.6A9.065 9.065 0 0 0 482 62.4z"/><path d="M482 302.634H336.933c-7.48 0-13.566-6.086-13.566-13.567 0-7.48 6.086-13.566 13.566-13.566h131.5V71.467c0-7.481 6.086-13.567 13.567-13.567 7.48 0 13.566 6.086 13.566 13.567v217.6c0 7.481-6.086 13.567-13.566 13.567zM336.933 284.5a4.571 4.571 0 0 0-4.566 4.566 4.571 4.571 0 0 0 4.566 4.567H482a4.572 4.572 0 0 0 4.566-4.567v-217.6A4.572 4.572 0 0 0 482 66.899a4.572 4.572 0 0 0-4.567 4.567V284.5h-140.5z"/></g></svg>