<svg xmlns="http://www.w3.org/2000/svg" width="512" height="363.99" viewBox="0 73.997 512 363.99"><g fill="#FFF"><path d="M470.726 437.987H41.274C18.524 437.987 0 419.479 0 396.712V115.271c0-22.767 18.524-41.274 41.274-41.274h429.451c22.75 0 41.274 18.507 41.274 41.274v281.442c.001 22.766-18.523 41.274-41.273 41.274zM41.274 90.506c-13.654 0-24.765 11.111-24.765 24.765v281.442c0 13.654 11.111 24.765 24.765 24.765h429.451c13.654 0 24.765-11.111 24.765-24.765V115.271c0-13.654-11.111-24.765-24.765-24.765H41.274z"/><path d="M256 297.472c-10.979 0-21.958-3.649-30.312-10.929L14.71 102.674c-3.434-3.005-3.797-8.205-.792-11.639 3.005-3.467 8.222-3.797 11.656-.809l210.961 183.869c10.566 9.196 28.397 9.179 38.93 0L486.377 90.242c3.418-3.021 8.618-2.675 11.656.809 3.005 3.434 2.642 8.635-.792 11.639L286.312 286.527c-8.354 7.297-19.333 10.945-30.312 10.945z"/></g></svg>