<svg xmlns="http://www.w3.org/2000/svg" width="320.537" height="320.545" viewBox="319.73 119.728 320.537 320.545"><g fill="#FFF"><path d="M597.077 119.728H362.922c-23.853 0-43.192 19.337-43.192 43.192v234.155c0 23.856 19.337 43.192 43.192 43.192h115.482l.2-114.539h-29.761a7.02 7.02 0 0 1-7.02-6.996l-.145-36.924a7.025 7.025 0 0 1 7.022-7.048h29.708v-35.676c0-41.4 25.285-63.944 62.217-63.944h30.308a7.023 7.023 0 0 1 7.022 7.022v31.131a7.02 7.02 0 0 1-7.017 7.022l-18.6.011c-20.084 0-23.976 9.543-23.976 23.552v30.886h44.134c4.209 0 7.47 3.673 6.973 7.845l-4.376 36.924a7.02 7.02 0 0 1-6.973 6.196h-39.56l-.2 114.544h68.716c23.853 0 43.192-19.34 43.192-43.193V162.92c.001-23.854-19.338-43.192-43.191-43.192z"/><path d="M478.404 440.265l.2-114.539h-.49v114.539z"/></g></svg>