<svg xmlns="http://www.w3.org/2000/svg" width="479.17" height="670" viewBox="720.415 0 479.17 670"><path fill="#46599B" d="M1187.871 63.592h-66.168V11.714a11.72 11.72 0 0 0-5.021-9.615C1114.692.714 1109.991 0 1109.991 0H810.016s-4.701.714-6.693 2.099a11.713 11.713 0 0 0-5.021 9.615v51.878h-66.174c-6.469 0-11.714 5.245-11.714 11.714v582.98c0 6.469 5.245 11.714 11.714 11.714h455.743c6.469 0 11.714-5.245 11.714-11.714V75.306c0-6.469-5.243-11.714-11.714-11.714zm-227.867-8.82L875.37 23.428h169.265l-84.631 31.344zm138.273-26.228v65.482l-83.754 51.183-37.908-71.604 121.662-45.061zm-276.547 0l121.663 45.061-37.908 71.606-83.755-51.185V28.544zm-77.887 214.014H848.07v29.346H743.843v-29.346zm0 52.773h115.941c6.469 0 11.714-5.245 11.714-11.714v-52.773c0-6.469-5.245-11.714-11.714-11.714H743.843V87.02h54.46v13.576c0 4.081 2.124 7.867 5.605 9.994l99.991 61.106a11.704 11.704 0 0 0 9.205 1.303 11.718 11.718 0 0 0 7.255-5.816l27.929-52.756v532.147H743.843V295.331zm227.875 351.241V114.427l27.929 52.756a11.714 11.714 0 0 0 16.46 4.513l99.991-61.106a11.714 11.714 0 0 0 5.605-9.994V87.021h54.454V219.13h-115.941c-6.469 0-11.714 5.245-11.714 11.714v52.773c0 6.469 5.245 11.714 11.714 11.714h115.941v351.242h-204.44v-.001zm204.439-374.668H1071.93v-29.346h104.227v29.346z"/></svg>