<svg xmlns="http://www.w3.org/2000/svg" width="320.54" height="320.539" viewBox="319.731 119.731 320.54 320.539"><g fill="#FFF"><path d="M544.78 119.731H415.22c-52.653 0-95.489 42.836-95.489 95.489v129.56c0 52.651 42.836 95.49 95.49 95.49h129.56c52.651 0 95.49-42.837 95.49-95.49V215.22c-.002-52.654-42.838-95.489-95.491-95.489zm63.243 225.05c0 34.928-28.315 63.243-63.243 63.243H415.22c-34.928 0-63.243-28.315-63.243-63.243V215.22c0-34.928 28.315-63.244 63.243-63.244h129.56c34.928 0 63.243 28.317 63.243 63.244v129.561z"/><path d="M480 197.096c-45.712 0-82.904 37.192-82.904 82.904 0 45.709 37.192 82.901 82.904 82.901s82.901-37.189 82.901-82.901-37.189-82.904-82.901-82.904zm0 133.559c-27.977 0-50.658-22.677-50.658-50.655s22.681-50.658 50.658-50.658 50.655 22.679 50.655 50.658c0 27.977-22.678 50.655-50.655 50.655z"/></g><path fill="#FDFEFF" d="M582.925 197.722c0 10.97-8.894 19.866-19.866 19.866-10.97 0-19.866-8.895-19.866-19.866s8.895-19.866 19.866-19.866c10.974 0 19.866 8.892 19.866 19.866z"/></svg>