<svg xmlns="http://www.w3.org/2000/svg" width="216.64" height="92.164" viewBox="0 0 216.64 92.164"><path fill-rule="evenodd" clip-rule="evenodd" fill="#22529E" d="M0 20.475h41.024V0L30.749 10.275 20.475 0 10.237 10.237 0 0z"/><path fill-rule="evenodd" clip-rule="evenodd" fill="#1373B8" d="M20.535 71.689C9.219 71.689.046 62.516.046 51.2s9.173-20.489 20.489-20.489S41.023 39.884 41.023 51.2c.001 11.316-9.172 20.489-20.488 20.489"/><path fill-rule="evenodd" clip-rule="evenodd" fill="#00A8EB" d="M0 81.927h41.024v10.237H0z"/><path fill="#22529E" d="M51.321 45.568V30.713h5.035v10.574h4.931v4.28h-9.966zm17.688.42c-2.224 0-3.927-.58-5.108-1.742-1.183-1.16-1.773-2.664-1.773-4.511v-9.021h4.993v8.477c0 .713.172 1.27.515 1.668s.828.598 1.458.598 1.115-.199 1.458-.598.515-.955.515-1.668v-8.477h4.972v9.021c0 1.833-.611 3.333-1.836 4.501-1.226 1.168-2.956 1.752-5.194 1.752zm19.133-.42l-2.686-4.343-2.58 4.343H76.96l5.309-7.742-5.036-7.112h6.022l2.35 3.902 2.245-3.902h5.874l-4.951 7.05 5.476 7.805h-6.107zm-36.82 25.701V56.414h5.035v10.575h4.931v4.28h-9.966z"/><path fill="#22529E" d="M61.12 71.269l5.854-14.855h5.309l5.791 14.855h-5.435l-.776-2.182h-4.721l-.734 2.182H61.12zm9.631-6.001l-1.196-3.671-1.217 3.671h2.413zm14.664 6.421c-2.224 0-3.927-.58-5.108-1.742-1.183-1.16-1.773-2.664-1.773-4.511v-9.021h4.993v8.477c0 .713.172 1.27.515 1.668.343.399.828.598 1.458.598s1.115-.199 1.458-.598c.343-.398.515-.955.515-1.668v-8.477h4.972v9.021c0 1.833-.611 3.333-1.836 4.501-1.225 1.168-2.956 1.752-5.194 1.752zm9.588-.42V56.414h4.973l4.238 7.532h.084l-.21-7.532h4.741v14.855h-5.098l-4.112-7.092h-.084l.209 7.092h-4.741zm22.554 0h-5.959V56.414h5.539c.979 0 1.889.07 2.728.21s1.646.388 2.423.744c.776.357 1.434.805 1.973 1.344.538.538.969 1.237 1.29 2.098.322.86.482 1.843.482 2.948 0 1.259-.23 2.381-.692 3.368-.461.986-1.095 1.772-1.898 2.36-.805.587-1.703 1.031-2.696 1.332s-2.057.451-3.19.451zm-.042-10.616h-1.112v6.336h.923c2.434 0 3.651-1.091 3.651-3.273 0-.951-.312-1.7-.934-2.245-.622-.546-1.465-.818-2.528-.818zm10.617 10.616V56.414h6.399c.783 0 1.511.077 2.182.23a6.641 6.641 0 0 1 1.899.756c.594.35 1.062.85 1.405 1.5s.514 1.431.514 2.339c0 .896-.228 1.693-.682 2.393-.455.699-1.095 1.237-1.92 1.615l3.776 6.022h-5.748l-2.854-5.309h-.147v5.309h-4.824zm4.783-10.973v2.392h.986c1.161 0 1.741-.412 1.741-1.238 0-.769-.511-1.153-1.531-1.153h-1.196zm18.652 4.888v6.085h-4.993v-6.085l-5.603-8.77h6.021l2.351 4.364 2.245-4.364h5.874l-5.895 8.77z"/><path fill="#0F3673" d="M107.515 35.808v-2.574a5.277 5.277 0 0 1-1.458.198c-.708 0-1.231-.143-1.57-.428-.339-.285-.508-.727-.508-1.327v-2.241h.891v2.079c0 .762.429 1.143 1.287 1.143.6 0 1.053-.063 1.358-.189v-3.033h.892v6.372h-.892zm2.394 0v-4.266h.847v3.078h.009l2.188-3.078h.927v4.266h-.847v-3.087h-.018l-2.178 3.087h-.928zm7.444.117c-.666 0-1.215-.207-1.647-.621-.432-.414-.647-.957-.647-1.629 0-.666.214-1.208.644-1.625.429-.417.974-.625 1.633-.625.312 0 .615.062.909.184.294.123.525.296.693.518l-.612.495a.976.976 0 0 0-.409-.351 1.284 1.284 0 0 0-.571-.135c-.427 0-.766.15-1.018.45-.252.3-.378.663-.378 1.089 0 .426.128.789.383 1.089s.596.45 1.021.45c.438 0 .78-.156 1.026-.468l.566.513c-.384.444-.915.666-1.593.666zm3.329-.117v-3.573h-1.449v-.693h3.744v.693h-1.449v3.573h-.846zm4.438.108c-.18 0-.357-.024-.531-.072s-.339-.12-.495-.216a1.077 1.077 0 0 1-.378-.409 1.275 1.275 0 0 1-.144-.617c0-.246.059-.46.176-.644.116-.183.266-.324.445-.423s.409-.177.688-.234.543-.095.792-.113.538-.027.868-.027v-.117c0-.306-.095-.538-.283-.697-.189-.159-.445-.239-.77-.239-.48 0-.885.166-1.215.495l-.45-.54c.444-.426 1.026-.639 1.746-.639.588 0 1.032.154 1.332.463s.45.712.45 1.21v1.863c0 .372.021.654.062.846h-.765a2.664 2.664 0 0 1-.072-.612h-.027c-.316.482-.793.722-1.429.722zm.189-.666c.384 0 .685-.115.904-.346.219-.231.328-.533.328-.905v-.225h-.207c-1.266 0-1.898.27-1.898.81 0 .234.084.404.252.509s.375.157.621.157zm3.159.558l1.107-1.674c-.666-.168-.999-.585-.999-1.251 0-.438.151-.771.454-.999.304-.228.707-.342 1.211-.342h1.989v4.266h-.847v-1.593h-.908l-.973 1.593h-1.034zm1.917-2.25h.999v-1.35h-.999c-.653 0-.98.225-.98.675-.001.45.326.675.98.675zm9.211 1.728c-.441.426-.989.639-1.643.639s-1.2-.213-1.638-.639c-.438-.426-.657-.966-.657-1.62 0-.654.217-1.191.652-1.611.435-.42.982-.63 1.643-.63s1.209.21 1.646.63c.438.42.657.957.657 1.611.002.654-.219 1.194-.66 1.62zm-2.682-.527c.256.303.602.454 1.04.454.438 0 .784-.151 1.039-.454.255-.303.383-.667.383-1.094 0-.426-.128-.789-.383-1.089-.255-.3-.602-.45-1.039-.45-.438 0-.784.15-1.04.45-.255.3-.382.663-.382 1.089 0 .427.127.791.382 1.094zm3.946 2.354v-2.007h.468c.426-.546.639-1.362.639-2.448v-1.116h3.285v3.564h.657v2.007h-.738v-1.305h-3.572v1.305h-.739zm1.386-2.007h2.169v-2.871h-1.638v.648c0 .858-.177 1.599-.531 2.223zm6.615.819c-.654 0-1.192-.207-1.615-.621-.424-.414-.635-.954-.635-1.62 0-.66.21-1.202.63-1.625s.945-.634 1.575-.634 1.129.199 1.498.598c.369.399.554.938.554 1.616 0 .126-.003.222-.009.288h-3.384c.012.366.152.673.423.922.27.249.591.374.963.374.534 0 .948-.216 1.242-.648l.594.477c-.45.582-1.062.873-1.836.873zm-1.386-2.628h2.537c-.012-.354-.12-.643-.323-.868-.204-.225-.495-.337-.873-.337a1.3 1.3 0 0 0-.918.351 1.283 1.283 0 0 0-.423.854zm3.861 2.511l2.034-2.232-1.854-2.034h1.106l1.684 1.98h.026v-1.98h.847v1.98h.026l1.684-1.98h1.106l-1.862 2.034 2.043 2.232h-1.116l-1.854-2.106h-.026v2.106h-.847v-2.106h-.026l-1.854 2.106h-1.117zm7.02 1.305v-2.007h.468c.426-.546.639-1.362.639-2.448v-1.116h3.285v3.564h.657v2.007h-.738v-1.305h-3.572v1.305h-.739zm1.386-2.007h2.169v-2.871h-1.638v.648c0 .858-.177 1.599-.531 2.223zm5.877.81c-.18 0-.357-.024-.531-.072s-.339-.12-.495-.216a1.077 1.077 0 0 1-.378-.409 1.275 1.275 0 0 1-.144-.617c0-.246.059-.46.176-.644.116-.183.266-.324.445-.423s.409-.177.688-.234.543-.095.792-.113.538-.027.868-.027v-.117c0-.306-.095-.538-.283-.697-.189-.159-.445-.239-.77-.239-.48 0-.885.166-1.215.495l-.45-.54c.444-.426 1.026-.639 1.746-.639.588 0 1.032.154 1.332.463s.45.712.45 1.21v1.863c0 .372.021.654.062.846h-.765a2.664 2.664 0 0 1-.072-.612h-.027c-.316.482-.793.722-1.429.722zm.189-.666c.384 0 .685-.115.904-.346.219-.231.328-.533.328-.905v-.225h-.207c-1.266 0-1.898.27-1.898.81 0 .234.084.404.252.509s.375.157.621.157zm4.5-.495l-.747 2.25h-.721l.621-2.25h.847zm-66.239 11.853v-4.266h.846v1.952h.027l1.8-1.952h1.125l-1.98 2.024 2.16 2.241h-1.143l-1.962-2.088h-.027v2.088h-.846zm8.383-.523c-.441.427-.989.64-1.643.64s-1.2-.213-1.638-.64c-.438-.426-.657-.966-.657-1.619 0-.654.217-1.191.652-1.611.435-.42.982-.63 1.643-.63s1.209.21 1.646.63c.438.42.657.957.657 1.611.001.653-.22 1.193-.66 1.619zm-2.683-.526c.256.304.602.455 1.04.455.438 0 .784-.151 1.039-.455.255-.303.383-.667.383-1.093 0-.427-.128-.789-.383-1.09-.255-.3-.602-.449-1.039-.449-.438 0-.784.149-1.04.449a1.627 1.627 0 0 0-.382 1.09c0 .426.127.79.382 1.093zm5.414 1.049v-3.573h-1.449v-.692h3.744v.692h-1.449v3.573h-.846zm6.864-.523c-.441.427-.989.64-1.643.64s-1.2-.213-1.638-.64c-.438-.426-.657-.966-.657-1.619 0-.654.217-1.191.652-1.611.435-.42.982-.63 1.643-.63s1.209.21 1.646.63c.438.42.657.957.657 1.611.001.653-.22 1.193-.66 1.619zm-2.683-.526c.256.304.602.455 1.04.455.438 0 .784-.151 1.039-.455.255-.303.383-.667.383-1.093 0-.427-.128-.789-.383-1.09-.255-.3-.602-.449-1.039-.449-.438 0-.784.149-1.04.449a1.627 1.627 0 0 0-.382 1.09c0 .426.127.79.382 1.093zm4.513 3.209v-6.426h.828v.666h.027c.144-.234.351-.424.621-.567a1.92 1.92 0 0 1 .918-.216c.624 0 1.136.215 1.534.644.399.429.599.961.599 1.598 0 .642-.198 1.179-.594 1.61-.396.433-.915.648-1.557.648-.307 0-.595-.067-.864-.203a1.623 1.623 0 0 1-.64-.553h-.026v2.799h-.846zm2.232-2.754c.444 0 .792-.151 1.044-.455.252-.303.378-.667.378-1.093a1.64 1.64 0 0 0-.378-1.09c-.252-.3-.6-.449-1.044-.449-.42 0-.765.152-1.035.459-.27.306-.404.669-.404 1.089s.135.781.404 1.084c.27.304.615.455 1.035.455zm3.646 2.754c-.198 0-.385-.021-.559-.063l.081-.747c.145.049.285.072.423.072.204 0 .363-.056.478-.166.113-.111.219-.293.314-.545l.271-.711-1.827-4.266h.945l1.322 3.348h.019l1.179-3.348h.9l-2.07 5.273c-.15.391-.335.68-.554.869-.219.189-.527.284-.922.284zm8.279-2.034c-.594 0-1.095-.186-1.503-.558s-.642-.855-.701-1.449h-.864v1.881h-.847v-4.266h.847v1.691h.882c.09-.54.336-.977.738-1.31.401-.333.885-.499 1.448-.499.643 0 1.175.211 1.598.635.423.423.635.961.635 1.615 0 .66-.212 1.201-.635 1.624s-.955.636-1.598.636zm0-.72c.414 0 .744-.146.99-.437s.369-.658.369-1.103-.123-.812-.369-1.103-.576-.437-.99-.437c-.413 0-.743.146-.989.437s-.369.658-.369 1.103.124.812.373 1.103.578.437.985.437zm5.661.594v-4.266h2.098c.144 0 .28.01.409.031.129.021.258.057.387.107.129.052.24.117.333.198a.884.884 0 0 1 .226.319c.057.133.085.282.085.45 0 .223-.067.416-.202.581s-.313.271-.535.319v.018c.275.036.501.146.675.329.174.183.261.421.261.715 0 .372-.146.665-.437.878s-.68.319-1.165.319h-2.135zm.847-2.511h1.179a.835.835 0 0 0 .486-.136c.132-.09.198-.228.198-.413 0-.366-.259-.55-.774-.55h-1.089v1.099zm0 1.836h1.151c.582 0 .873-.198.873-.594 0-.402-.275-.604-.827-.604h-1.197v1.198zm4.066.675v-4.266h.847v1.548h.972c.528 0 .943.115 1.247.347.303.23.454.568.454 1.012 0 .438-.15.774-.45 1.009-.3.233-.714.351-1.242.351h-1.828zm.847-.675h.873c.63 0 .944-.226.944-.675 0-.469-.314-.702-.944-.702h-.873v1.377zm3.473.675v-4.266h.846v4.266h-.846zm5.869.126c-.81 0-1.425-.267-1.845-.801l.576-.495c.113.174.283.321.508.441.226.119.464.18.716.18.63 0 .945-.222.945-.666s-.375-.666-1.125-.666h-.315v-.63h.306c.672 0 1.009-.216 1.009-.648 0-.372-.285-.558-.855-.558a1.28 1.28 0 0 0-.594.148 1.233 1.233 0 0 0-.459.392l-.54-.459c.156-.234.383-.417.68-.549.297-.133.625-.198.985-.198.485 0 .88.104 1.184.311.303.207.454.49.454.851a.906.906 0 0 1-.247.63c-.165.18-.374.297-.626.351v.019c.3.054.542.172.725.355a.932.932 0 0 1 .274.688c0 .408-.165.728-.495.958-.332.23-.752.346-1.261.346zm4.167-.018c-.18 0-.357-.024-.531-.072s-.339-.12-.495-.216a1.08 1.08 0 0 1-.378-.41 1.271 1.271 0 0 1-.144-.616c0-.246.059-.46.176-.644.116-.183.266-.324.445-.423s.409-.177.688-.234c.279-.057.543-.094.792-.112.249-.018.538-.027.868-.027v-.116c0-.307-.095-.539-.283-.698-.189-.158-.445-.238-.77-.238-.48 0-.885.165-1.215.495l-.45-.54c.444-.426 1.026-.639 1.746-.639.588 0 1.032.154 1.332.463.3.31.45.713.45 1.211v1.863c0 .372.021.653.062.846h-.765a2.664 2.664 0 0 1-.072-.612h-.027c-.316.479-.794.719-1.429.719zm.189-.666c.384 0 .685-.116.904-.347.219-.231.328-.532.328-.904v-.226h-.207c-1.266 0-1.898.271-1.898.811 0 .233.084.403.252.508.168.105.375.158.621.158zm5.472.675c-.666 0-1.215-.207-1.647-.621-.432-.414-.647-.957-.647-1.629 0-.666.214-1.208.644-1.625.429-.417.974-.625 1.633-.625.312 0 .615.062.909.185s.525.295.693.518l-.612.495a.971.971 0 0 0-.409-.352 1.284 1.284 0 0 0-.571-.135c-.427 0-.766.15-1.018.45s-.378.663-.378 1.089.128.789.383 1.089.596.45 1.021.45c.438 0 .78-.156 1.026-.468l.566.513c-.384.444-.916.666-1.593.666zm2.358-.064c-.21 0-.394-.021-.549-.062l.071-.711a.91.91 0 0 0 .288.045c.307 0 .534-.157.685-.473.149-.315.225-.859.225-1.634v-1.484h3.276v4.266h-.847v-3.573h-1.61v1.018c0 .863-.122 1.515-.365 1.953-.242.437-.634.655-1.174.655zm5.625 2.107c-.198 0-.385-.021-.559-.063l.081-.747c.145.049.285.072.423.072.204 0 .363-.056.478-.166.113-.111.219-.293.314-.545l.271-.711-1.827-4.266h.945l1.322 3.348h.019l1.179-3.348h.9l-2.07 5.273c-.15.391-.335.68-.554.869-.219.189-.526.284-.922.284zm3.653-2.16l2.034-2.232-1.854-2.033h1.106l1.684 1.979h.026v-1.979h.847v1.979h.026l1.684-1.979h1.106l-1.862 2.033 2.043 2.232h-1.116l-1.854-2.106h-.026v2.106h-.847v-2.106h-.026l-1.854 2.106h-1.117zm7.587 0v-4.266h.847v3.077h.009l2.188-3.077h.927v4.266h-.847v-3.087h-.018l-2.178 3.087h-.928zm5.427 0v-4.266h2.098c.144 0 .28.01.409.031.129.021.258.057.387.107.129.052.24.117.333.198a.884.884 0 0 1 .226.319c.057.133.085.282.085.45 0 .223-.067.416-.202.581s-.313.271-.535.319v.018c.275.036.501.146.675.329.174.183.261.421.261.715 0 .372-.146.665-.437.878s-.68.319-1.165.319h-2.135zm.847-2.511h1.179a.835.835 0 0 0 .486-.136c.132-.09.198-.228.198-.413 0-.366-.259-.55-.774-.55h-1.089v1.099zm0 1.836h1.151c.582 0 .873-.198.873-.594 0-.402-.275-.604-.827-.604h-1.197v1.198zm5.301.783c-.18 0-.357-.024-.531-.072s-.339-.12-.495-.216a1.08 1.08 0 0 1-.378-.41 1.271 1.271 0 0 1-.144-.616c0-.246.059-.46.176-.644.116-.183.266-.324.445-.423s.409-.177.688-.234c.279-.057.543-.094.792-.112.249-.018.538-.027.868-.027v-.116c0-.307-.095-.539-.283-.698-.189-.158-.445-.238-.77-.238-.48 0-.885.165-1.215.495l-.45-.54c.444-.426 1.026-.639 1.746-.639.588 0 1.032.154 1.332.463.3.31.45.713.45 1.211v1.863c0 .372.021.653.062.846h-.765a2.664 2.664 0 0 1-.072-.612h-.027c-.316.479-.794.719-1.429.719zm.189-.666c.384 0 .685-.116.904-.347.219-.231.328-.532.328-.904v-.226h-.207c-1.266 0-1.898.271-1.898.811 0 .233.084.403.252.508.168.105.375.158.621.158zm5.427.675c-.654 0-1.192-.207-1.615-.621-.424-.414-.635-.954-.635-1.62 0-.66.21-1.201.63-1.624.42-.424.945-.635 1.575-.635s1.129.199 1.498.599c.369.398.554.938.554 1.615 0 .126-.003.222-.009.288h-3.384c.012.366.152.674.423.922.27.25.591.374.963.374.534 0 .948-.216 1.242-.648l.594.478c-.45.581-1.063.872-1.836.872zm-1.386-2.628h2.537c-.012-.354-.12-.644-.323-.869-.204-.225-.495-.337-.873-.337a1.3 1.3 0 0 0-.918.351 1.283 1.283 0 0 0-.423.855zm5.471 2.511v-3.573h-1.449v-.692h3.744v.692h-1.449v3.573h-.846zm5.176.117c-.654 0-1.192-.207-1.615-.621-.424-.414-.635-.954-.635-1.62 0-.66.21-1.201.63-1.624.42-.424.945-.635 1.575-.635s1.129.199 1.498.599c.369.398.554.938.554 1.615 0 .126-.003.222-.009.288h-3.384c.012.366.152.674.423.922.27.25.591.374.963.374.534 0 .948-.216 1.242-.648l.594.478c-.451.581-1.063.872-1.836.872zm-1.386-2.628h2.537c-.012-.354-.12-.644-.323-.869-.204-.225-.495-.337-.873-.337a1.3 1.3 0 0 0-.918.351 1.283 1.283 0 0 0-.423.855z"/></svg>