<?xml version="1.0" encoding="utf-8"?>
<!-- Generator: Adobe Illustrator 17.0.0, SVG Export Plug-In . SVG Version: 6.00 Build 0)  -->
<!DOCTYPE svg PUBLIC "-//W3C//DTD SVG 1.1//EN" "http://www.w3.org/Graphics/SVG/1.1/DTD/svg11.dtd">
<svg version="1.1" id="Слой_1" xmlns="http://www.w3.org/2000/svg" xmlns:xlink="http://www.w3.org/1999/xlink" x="0px" y="0px"
	 width="157.416px" height="92.164px" viewBox="4.88 0 157.416 92.164" enable-background="new 4.88 0 157.416 92.164"
	 xml:space="preserve">
<polygon fill="#22529E" points="4.834,20.475 25.309,20.475 25.383,20.475 45.783,20.475 45.857,20.475 45.858,0 35.583,10.275 
	25.309,0 15.071,10.237 4.834,0 "/>
<path fill="#1373B8" d="M25.369,71.689C14.053,71.689,4.88,62.516,4.88,51.2s9.173-20.489,20.489-20.489S45.857,39.884,45.857,51.2
	C45.858,62.516,36.685,71.689,25.369,71.689"/>
<rect x="4.834" y="81.927" fill="#00A8EB" width="41.024" height="10.237"/>
<g enable-background="new    ">
	<path fill="#22529E" d="M56.155,45.567V30.713h5.036v10.574h4.93v4.28C66.121,45.567,56.155,45.567,56.155,45.567z"/>
</g>
<g enable-background="new    ">
	<path fill="#22529E" d="M73.842,45.987c-2.224,0-3.927-0.58-5.109-1.742c-1.182-1.16-1.773-2.664-1.773-4.511v-9.021h4.994v8.477
		c0,0.713,0.171,1.27,0.514,1.668c0.342,0.398,0.829,0.598,1.458,0.598s1.115-0.199,1.458-0.598s0.514-0.955,0.514-1.668v-8.477
		h4.973v9.021c0,1.833-0.612,3.333-1.836,4.501C77.811,45.403,76.08,45.987,73.842,45.987z"/>
	<path fill="#22529E" d="M92.978,45.567l-2.686-4.343l-2.581,4.343h-5.917l5.309-7.742l-5.036-7.112h6.022l2.35,3.902l2.245-3.902
		h5.875l-4.952,7.05l5.477,7.805L92.978,45.567L92.978,45.567z"/>
</g>
<g enable-background="new    ">
	<path fill="#22529E" d="M56.156,71.269V56.414h5.036v10.574h4.93v4.28L56.156,71.269L56.156,71.269z"/>
	<path fill="#22529E" d="M65.954,71.269l5.854-14.854h5.308l5.792,14.854h-5.435l-0.776-2.182h-4.721l-0.734,2.182H65.954z
		 M75.584,65.268l-1.196-3.671l-1.217,3.671H75.584z"/>
</g>
<g enable-background="new    ">
	<path fill="#22529E" d="M90.249,71.688c-2.225,0-3.927-0.58-5.109-1.742c-1.182-1.16-1.772-2.664-1.772-4.511v-9.021h4.993v8.477
		c0,0.713,0.171,1.27,0.515,1.668c0.342,0.398,0.828,0.598,1.458,0.598c0.629,0,1.115-0.199,1.458-0.598s0.514-0.955,0.514-1.668
		v-8.477h4.973v9.021c0,1.833-0.612,3.333-1.836,4.501S92.486,71.688,90.249,71.688z"/>
	<path fill="#22529E" d="M99.837,71.269V56.414h4.973l4.238,7.532h0.084l-0.21-7.532h4.742v14.854h-5.099l-4.112-7.092h-0.084
		l0.21,7.092L99.837,71.269L99.837,71.269z"/>
	<path fill="#22529E" d="M122.392,71.269h-5.959V56.414h5.539c0.979,0,1.889,0.07,2.728,0.21c0.84,0.14,1.647,0.388,2.424,0.744
		c0.776,0.357,1.434,0.805,1.972,1.344c0.538,0.538,0.969,1.237,1.29,2.098c0.322,0.86,0.483,1.843,0.483,2.948
		c0,1.259-0.231,2.381-0.692,3.367c-0.462,0.986-1.095,1.772-1.899,2.36c-0.805,0.587-1.703,1.031-2.696,1.332
		S123.524,71.269,122.392,71.269z M122.35,60.652h-1.112v6.336h0.924c2.434,0,3.65-1.091,3.65-3.272c0-0.951-0.312-1.7-0.934-2.245
		C124.255,60.925,123.412,60.652,122.35,60.652z"/>
	<path fill="#22529E" d="M132.966,71.269V56.414h6.399c0.782,0,1.51,0.077,2.182,0.23c0.671,0.154,1.304,0.406,1.898,0.756
		s1.063,0.85,1.406,1.5s0.514,1.431,0.514,2.339c0,0.896-0.228,1.693-0.682,2.393c-0.455,0.699-1.095,1.237-1.92,1.615l3.776,6.021
		h-5.749l-2.853-5.309h-0.147v5.309L132.966,71.269L132.966,71.269z M137.749,60.296v2.392h0.986c1.161,0,1.741-0.412,1.741-1.238
		c0-0.769-0.511-1.153-1.531-1.153L137.749,60.296L137.749,60.296z"/>
</g>
<g enable-background="new    ">
	<path fill="#22529E" d="M156.401,65.184v6.085h-4.994v-6.085l-5.602-8.77h6.021l2.35,4.364l2.245-4.364h5.875L156.401,65.184z"/>
</g>
</svg>
