<svg xmlns="http://www.w3.org/2000/svg" width="512" height="512" viewBox="0 0 512 512"><path fill="#FFF" d="M511.649 421.408c-1.628-12.303-8.73-22.911-19.484-29.103l-126.312-72.726c-15.47-8.907-35.096-6.314-47.723 6.312l-24.88 24.88c-6.62 6.622-17.095 7.208-24.359 1.361-19.614-15.782-38.926-33.151-57.398-51.625-18.473-18.473-35.842-37.783-51.625-57.398-5.846-7.265-5.261-17.738 1.361-24.36l24.879-24.88c12.626-12.625 15.223-32.249 6.313-47.722L119.695 19.835C113.503 9.08 102.896 1.978 90.592.351 78.288-1.28 66.198 2.824 57.422 11.599L19.934 49.088C-6.23 75.254-6.65 123.115 18.751 183.859c24.425 58.407 70.007 122.703 128.346 181.044 58.341 58.34 122.638 103.922 181.045 128.347 29.9 12.503 56.676 18.751 79.283 18.75 23.319 0 42.201-6.649 55.487-19.934l37.488-37.489c8.776-8.776 12.876-20.866 11.249-33.169zm-154.072-87.454l126.312 72.726c6.247 3.596 10.371 9.758 11.316 16.903.794 5.997-.764 11.902-4.296 16.66l-167.867-95.805 6.817-6.817c7.332-7.333 18.733-8.84 27.718-3.667zM88.416 16.795c7.147.945 13.307 5.07 16.903 11.317l72.726 126.312c5.175 8.987 3.667 20.386-3.666 27.717l-6.262 6.262L71.786 21.091c3.938-2.916 8.647-4.5 13.557-4.5 1.019.001 2.046.068 3.073.204zm362.767 463.541c-20.787 20.787-63.301 19.916-116.641-2.391-56.463-23.611-118.865-67.923-175.714-124.772-56.85-56.85-101.162-119.253-124.773-175.714-22.308-53.341-23.178-95.855-2.391-116.643l27.83-27.831 96.476 167.566-6.47 6.47c-12.623 12.624-13.722 32.608-2.556 46.488 16.155 20.077 33.926 39.836 52.818 58.727 18.894 18.893 38.652 36.664 58.728 52.819 13.878 11.166 33.862 10.068 46.488-2.557l5.903-5.903 168.101 95.939-27.799 27.802z"/></svg>