<svg xmlns="http://www.w3.org/2000/svg" width="358.597" height="512" viewBox="76.697 0 358.597 512"><g fill="#FFF"><path d="M257.669 112.205c-36.083 0-65.453 29.37-65.453 65.453s29.37 65.453 65.453 65.453 65.453-29.37 65.453-65.453-29.37-65.453-65.453-65.453zm0 112.205c-25.779 0-46.752-20.973-46.752-46.752s20.973-46.752 46.752-46.752c25.779 0 46.752 20.973 46.752 46.752s-20.973 46.752-46.752 46.752z"/><path d="M382.805 52.521C348.938 18.654 303.907 0 256.014 0c-47.902 0-92.924 18.654-126.791 52.521-62.676 62.666-70.465 180.575-16.868 252.012L256.014 512l143.445-207.177c53.811-71.727 46.022-189.635-16.654-252.302zm1.487 241.372l-128.278 185.25-128.484-185.54c-48.613-64.817-41.647-171.299 14.923-227.86 30.333-30.333 70.661-47.042 113.561-47.042s83.228 16.709 113.57 47.042c56.57 56.56 63.536 163.043 14.708 228.15z"/></g></svg>