<svg xmlns="http://www.w3.org/2000/svg" width="530.222" height="520.653" viewBox="214.889 -11.584 530.222 520.653"><path fill="#0E1B45" d="M735.966 239.503c-64-80.503-127.773 24.365-158.935-33.239C548.186 168.11 644.687 24.337 609.11-7.617 576.407-36.99 500.112 69.002 458.466 83.124c-25.328 8.593-104.648-32.725-130.65-39.034C223.966 43 177.966 123 249.352 249.864c14.194 25.064 45.162 76.138 53.718 103.659 15.106 48.529-17.642 82.706 15.211 121.476 39.559 46.677 89.205 5.284 150.322 2.29 46.162-2.266 133.716 45.767 176.268 27.71 41.5-17.604-5.64-95.608 6.306-139.103 11.134-40.611 126.789 6.104 84.789-126.393z"/></svg>