<svg xmlns="http://www.w3.org/2000/svg" width="65.962" height="383.316" viewBox="0 0 65.962 383.316"><path fill="#A7C9E8" d="M40.672 67.406v2.79h3.52v6.23h-3.52v309.21c-.57.28-1.14-.42-1.71-.13V76.426h-9.57v309.11c-.58.44-1.15-.11-1.71.35V76.426h-3.51v-6.23h3.51v-2.79h-3.51v-6.23h20.02v6.23h-3.52zm-14.79-4.51v2.79h16.59v-2.79h-16.59zm0 9.02v2.8h16.59v-2.8h-16.59zm3.51-4.51v2.79h9.57v-2.79h-9.57zm-11.545-7.138c.256.328.649.52 1.065.52H49.98a1.35 1.35 0 0 0 1.289-1.754L44.516 37.42a1.351 1.351 0 0 0-1.29-.948H24.315c-.62 0-1.16.422-1.311 1.023l-5.403 21.613c-.101.404-.01.832.246 1.16zm2.795-2.183l4.728-18.912h16.864l5.91 18.912H20.642zM0 5.403v8.105c0 .581.372 1.098.924 1.282l8.105 2.702a1.35 1.35 0 0 0 1.778-1.282V2.702A1.352 1.352 0 0 0 9.029 1.42L.924 4.122A1.35 1.35 0 0 0 0 5.403zm2.702.974l5.403-1.801v9.76l-5.403-1.801V6.377zm10.806-5.026v17.561c0 .746.605 1.351 1.351 1.351 6.704 0 12.157 5.454 12.157 12.157 0 .746.605 1.351 1.351 1.351h13.545a1.35 1.35 0 0 0 1.348-1.424 23.618 23.618 0 0 1-.034-1.278c0-8.924 5.178-16.917 12.592-19.439.548-.186.916-.7.916-1.279v-9A1.35 1.35 0 0 0 55.384 0H14.859c-.746 0-1.351.605-1.351 1.351zm2.702 16.271V2.702h37.823v6.709c-8 3.209-13.508 11.961-13.508 21.658H29.657c-.644-7.118-6.329-12.803-13.447-13.447z"/><path fill="#A7C9E8" d="M8.417 36.161a1.345 1.345 0 0 0 1.91 0l10.89-10.891a1.35 1.35 0 1 0-1.91-1.911L8.417 34.25a1.35 1.35 0 0 0 0 1.911z"/></svg>