<svg xmlns="http://www.w3.org/2000/svg" width="255.277" height="242.943" viewBox="0 0 255.277 242.943"><path fill="#C1DAF0" d="M66.057 108.912v134.031H189.92V108.912c12.386 1.729 44.163 17.061 44.163 17.061l21.193-49.765c-29.776-18.354-86.169-34.782-86.169-34.782-5.181 23.973-37.139 22.865-41.238 23.162-4.101-.297-36.054.807-41.24-23.162 0 0-56.85 16.428-86.631 34.782l21.779 49.765c.002 0 31.894-15.331 44.28-17.061zm15.487-57.303c5.354 10.491 17.614 20.377 44.612 21.18.486.016.871.02 1.119.041.194.012.391.022.595.022.203 0 .405-.01.607-.022.249-.016.628-.024 1.121-.041 26.99-.803 39.256-10.685 44.61-21.172 14.721 4.615 48.227 15.751 70.868 28.096l-14.79 35.125c-10.593-4.864-28.797-12.752-38.269-14.1a8.449 8.449 0 0 0-1.164-.083c-1.972 0-4.367.71-5.879 2.022-1.801 1.567-3.31 3.841-3.31 6.236v125.773H74.315V108.912c0-2.395-1.512-4.669-3.316-6.236-1.51-1.312-3.669-2.022-5.647-2.022a9.98 9.98 0 0 0-1.28.083c-9.488 1.349-27.866 9.268-38.476 14.128L10.512 79.692c22.668-12.34 56.271-23.476 71.032-28.083z"/><path fill="#B6CEE7" d="M124.781 46.761c-.306-1.084-.562-2.419-.76-3.57-14.809.706-25.557 4.22-26.289 4.476-2.151.75-3.294 3.006-2.546 5.161a4.132 4.132 0 0 0 3.901 2.774c.45 0 .909.697 1.355.544.153-.057 8.649-3.129 20.755-3.129h15.235c6.069 0 12.463.887 18.833 3.121 2.149.744 4.508-.768 5.262-2.919.754-2.151-.378-4.701-2.529-5.453-8.757-3.069-17.471-4.435-25.458-4.724a.426.426 0 0 1-.016-.099c-1.625-8.01 4.714-8.758 11.039-12.229 5.831-3.2 8.943-9.699 7.782-16.275-2.83-15.967-25.248-17.354-36.792-10.665-4.604 2.665-.45 9.806 4.165 7.128 5.322-3.084 11.935-3.232 17.757-1.647 7 1.908 9.467 10.252 2.919 14.328-4.201 2.609-8.976 3.609-12.562 7.225-3.269 3.295-3.548 7.868-2.812 12.185.197 1.151.45 2.29.76 3.376.083.288.252.474.371.718 1.537 3.097 5.873 2.593 7.284.004a3.8 3.8 0 0 0 .403-1.218c-.008.752-.121 1.478-.403 1.994-1.411 2.588-5.744 3.475-7.284.379-15.1.59-26.065 4.77-26.065 4.77s10.965-4.566 26.065-5.149c-.118-.244-.287-.816-.37-1.106z"/></svg>