<svg xmlns="http://www.w3.org/2000/svg" width="56.735" height="385.887" viewBox="0 0 56.735 385.887"><path fill="#A7C9E8" d="M44.192 318.48v6.23h-20.02v-6.23h3.51v-2.79h-3.51v-6.23h3.51V0c.56.46 1.13-.09 1.71.35v309.11h9.57V.38c.57.29 1.14-.41 1.71-.13v309.21h3.52v6.23h-3.52v2.79h3.52zm-1.72 4.51v-2.79h-16.59v2.79h16.59zm0-9.02v-2.8h-16.59v2.8h16.59zm-3.51 4.51v-2.79h-9.57v2.79h9.57zm-21.361 8.298l5.403 21.613c.15.601.691 1.023 1.311 1.023h18.912c.591 0 1.113-.384 1.29-.948l6.754-21.613a1.353 1.353 0 0 0-1.289-1.754h-31.07a1.351 1.351 0 0 0-1.311 1.679zm30.542 1.023l-5.91 18.912H25.37l-4.728-18.912h27.501zM.924 378.765l8.105 5.702a1.351 1.351 0 0 0 1.778-1.282v-13.508a1.352 1.352 0 0 0-1.778-1.282l-8.105 5.702A1.35 1.35 0 0 0 0 375.378v2.105c0 .582.372 1.098.924 1.282zm1.778-3.413l5.403-3.801v9.76l-5.403-3.801v-2.158zm12.157 10.535h40.525c.746 0 1.351-.605 1.351-1.351v-9a1.35 1.35 0 0 0-.916-1.279c-7.414-2.522-12.592-10.516-12.592-19.439 0-.426.012-.856.034-1.278a1.351 1.351 0 0 0-1.348-1.424H28.367c-.746 0-1.351.605-1.351 1.351 0 6.704-5.454 12.157-12.157 12.157-.746 0-1.351.605-1.351 1.351v17.561c0 .746.605 1.351 1.351 1.351zm1.351-17.622c7.118-.644 12.803-6.329 13.447-13.447h10.868c0 9.697 5.508 18.449 13.508 21.658v6.709H16.21v-14.92z"/><path fill="#A7C9E8" d="M8.417 351.636l10.891 10.891a1.351 1.351 0 0 0 1.91-1.911l-10.891-10.891a1.345 1.345 0 0 0-1.91 0 1.35 1.35 0 0 0 0 1.911z"/></svg>