<svg xmlns="http://www.w3.org/2000/svg" width="35.69" height="35.69" viewBox="0 0 35.69 35.69"><g fill="#BCCCE4"><path d="M35.69 21.08l-2.66 6.67-2.93-1.17a14.53 14.53 0 0 1-3.13 3.37l1.21 2.8-6.6 2.84-1.16-2.68c-1.56.28-3.16.31-4.74.09l-1.07 2.69-6.67-2.65 1.08-2.72c-1.28-.92-2.4-2.04-3.33-3.33l-2.75 1.19L.1 21.59 3 20.34c-.22-1.51-.2-3.02.05-4.51L0 14.61l2.65-6.67 3.24 1.29a15.11 15.11 0 0 1 3.04-2.99l-1.42-3.3L14.1.1l1.47 3.41c1.37-.2 2.76-.21 4.12-.03L21.08 0l6.67 2.66-1.37 3.44c1.13.81 2.15 1.76 3.02 2.86l3.35-1.45 2.84 6.6-3.2 1.38c.27 1.44.33 2.89.17 4.35l3.13 1.24zm-3.7 4.25l1.28-3.21-2.76-1.1.12-.73c.27-1.72.2-3.44-.22-5.13l-.19-.77 2.92-1.26-1.37-3.17-3 1.3-.43-.61c-.98-1.37-2.19-2.52-3.6-3.41l-.66-.41 1.25-3.13-3.21-1.28-1.25 3.15-.76-.14c-1.61-.3-3.29-.29-4.92.04l-.74.15-1.32-3.07-3.17 1.37 1.29 3-.65.43c-1.43.94-2.65 2.13-3.61 3.54l-.42.62-2.88-1.15-1.27 3.21 2.77 1.11-.17.77c-.39 1.74-.41 3.51-.07 5.27l.15.74-2.56 1.1 1.37 3.17 2.47-1.06.43.66c1.01 1.56 2.3 2.86 3.85 3.86l.65.42-.95 2.39 3.21 1.27.94-2.37.76.15c1.81.35 3.7.31 5.49-.12l.76-.18 1.04 2.4 3.17-1.37-1.06-2.46.61-.43c1.49-1.06 2.72-2.38 3.65-3.93l.4-.68 2.66 1.05z"/><path d="M21.77 16.52a4.376 4.376 0 0 1-4.02 6.11c-.55 0-1.1-.11-1.62-.32a4.353 4.353 0 0 1-2.4-2.33 4.37 4.37 0 0 1-.05-3.35 4.36 4.36 0 0 1 4.07-2.76c.56 0 1.1.11 1.62.31 1.08.43 1.94 1.26 2.4 2.34zm-1.68 2.66c.24-.63.23-1.31-.03-1.93a2.518 2.518 0 0 0-2.31-1.52c-1.03 0-1.95.63-2.34 1.59-.24.62-.23 1.31.03 1.92.27.62.76 1.1 1.38 1.34a2.51 2.51 0 0 0 3.27-1.4z"/></g></svg>