<svg xmlns="http://www.w3.org/2000/svg" width="45.24" height="273.08" viewBox="0 0 45.24 273.08"><g fill="#A7C9E8"><path d="M32.52 220.48v6.23H12.5v-6.23h3.51v-2.79H12.5v-6.23h3.51V0c.56.46 1.03-3.213 1.61-2.773l.1 214.233h9.57L27.222-1.143c.57.29 1.14.59 1.71.87L29 211.46h3.52v6.23H29v2.79h3.52zm-1.72 4.51v-2.79H14.21v2.79H30.8zm0-9.02v-2.8H14.21v2.8H30.8zm-3.51 4.51v-2.79h-9.57v2.79h9.57z"/><path d="M45.24 260.89v5.82c0 3.51-2.86 6.37-6.38 6.37a6.38 6.38 0 0 1-6.37-6.37v-5.82c0-.17.03-.33.06-.46l-9.93-10.55-9.94 10.55c.04.16.06.3.06.46v5.82a6.38 6.38 0 0 1-6.37 6.37c-3.52 0-6.37-2.86-6.37-6.37v-5.82c0-1.17.37-2.29 1.11-3.42.23-.8.58-1.57 1.17-2.23L17 239.6v-6.87h-4.5v-6.22h20.02v6.22h-4.28v6.87l14.7 15.63c.59.66.95 1.43 1.17 2.23.76 1.13 1.13 2.26 1.13 3.43zm-1.72 5.82v-4.94c-.28.48-.56.95-.99 1.34a5.579 5.579 0 0 1-7.87-.43l-.42-.45-.03 4.48c0 2.57 2.08 4.66 4.65 4.66s4.66-2.09 4.66-4.66zm-2.14-4.87c1.856-1.214 1.728-2.531 1.12-3.79l-.01-.03c-.17-.68-.43-1.19-.8-1.61 0-.01 0-.02-.01-.02l-13.67-14.53v.49c0 .91-.27 1.73-.66 2.49-.07.13-.17.24-.25.36-.43.7-.99 1.26-1.68 1.7-.04.03-.05.07-.08.09l-1.55 1.64 10.61 11.26v.01l1.52 1.62c1.4 1.55 3.753 1.436 5.46.32zM30.8 231.02v-2.8H14.21v2.8H30.8zm-4.5 11.33v-9.62h-7.37v9.62c0 1.32.73 2.52 1.94 3.22l.19.16.15.15c.41.15.84.26 1.29.26.68 0 1.27-.22 1.82-.52l.05-.05c.56-.33 1-.78 1.32-1.29.04-.06.09-.11.12-.17.31-.54.49-1.13.49-1.76zm-4.84 6.3l-1.24-1.32c-1.89-.88-3.22-2.77-3.22-4.98v-.26L3.54 256.4c-.36.41-.62.93-.8 1.62l-.02.05c-.31 1.33.04 2.79 1.13 3.77.71.63 1.62.98 2.57.98 1.1 0 2.14-.47 2.87-1.29l1.55-1.63v-.01l10.62-11.24zm-10.43 18.06v-4.52l-.47.5a5.536 5.536 0 0 1-4.14 1.84c-1.37 0-2.69-.5-3.71-1.42-.43-.39-.72-.86-1-1.34v4.94c0 2.57 2.09 4.66 4.66 4.66s4.66-2.09 4.66-4.66z"/></g></svg>