<?xml version="1.0" encoding="utf-8"?>
<!-- Generator: Adobe Illustrator 17.0.0, SVG Export Plug-In . SVG Version: 6.00 Build 0)  -->
<!DOCTYPE svg PUBLIC "-//W3C//DTD SVG 1.1//EN" "http://www.w3.org/Graphics/SVG/1.1/DTD/svg11.dtd">
<svg version="1.1" id="Capa_1" xmlns="http://www.w3.org/2000/svg" xmlns:xlink="http://www.w3.org/1999/xlink" x="0px" y="0px"
	 width="454.479px" height="512px" viewBox="28.765 0 454.479 512" enable-background="new 28.765 0 454.479 512"
	 xml:space="preserve">
<g>
	<path fill="#7A97C5" d="M483.244,103.683V42.877C483.244,19.238,463.996,0,440.358,0H71.642C48.004,0,28.765,19.238,28.765,42.877
		v60.807c0,9.401,6.319,17.271,14.906,19.82c-9.052,7.87-14.906,19.326-14.906,32.225v313.414c0,23.629,19.229,42.857,42.877,42.857
		h368.716c23.638,0,42.886-19.229,42.886-42.877V155.728c0-12.91-5.854-24.365-14.906-32.225
		C476.916,120.954,483.244,113.084,483.244,103.683z M48.149,42.877c0-12.958,10.535-23.493,23.483-23.493h368.716
		c12.958,0,23.503,10.535,23.503,23.493v60.807c0,0.756-0.611,1.376-1.376,1.376H49.516c-0.766,0-1.367-0.601-1.367-1.376
		L48.149,42.877z M463.861,469.133c0,12.958-10.545,23.493-23.503,23.493H71.642c-12.948,0-23.493-10.535-23.493-23.474V155.728
		c0-12.958,10.535-23.493,23.493-23.493h368.716c12.958,0,23.503,10.535,23.503,23.493
		C463.851,155.728,463.851,469.133,463.861,469.133z"/>
	<path fill="#7A97C5" d="M105.273,86.441h92.644c8.771,0,15.914-7.133,15.914-15.914V53.935c0-8.771-7.143-15.914-15.914-15.914
		h-92.644c-8.761,0-15.904,7.133-15.914,15.914v16.592C89.359,79.299,96.502,86.441,105.273,86.441z M99.051,53.945
		c0-3.431,2.801-6.232,6.222-6.232h92.644c3.431,0,6.222,2.791,6.222,6.222v16.592c0,3.431-2.791,6.222-6.222,6.222h-92.644
		c-3.431,0-6.222-2.791-6.222-6.222L99.051,53.945z"/>
	<path fill="#7A97C5" d="M322.35,86.432h8.286c8.771,0,15.924-7.133,15.924-15.914V53.925c0-8.771-7.143-15.914-15.924-15.914
		h-8.286c-8.761,0-15.904,7.133-15.904,15.914v16.592C306.456,79.289,313.589,86.432,322.35,86.432z M316.138,53.925
		c0-3.431,2.782-6.222,6.212-6.222h8.286c3.431,0,6.232,2.791,6.232,6.222v16.592c0,3.431-2.791,6.222-6.232,6.222h-8.286
		c-3.431,0-6.212-2.791-6.212-6.222V53.925z"/>
	<path fill="#7A97C5" d="M382.73,86.432h8.286c8.752,0,15.895-7.133,15.924-15.914V53.925c0-8.771-7.143-15.914-15.924-15.914
		h-8.286c-8.771,0-15.914,7.133-15.914,15.914v16.592C366.826,79.289,373.959,86.432,382.73,86.432z M376.518,53.925
		c0-3.431,2.791-6.222,6.222-6.222h8.287c3.431,0,6.232,2.791,6.232,6.222v16.583c-0.01,3.431-2.801,6.232-6.232,6.232h-8.287
		c-3.431,0-6.222-2.791-6.222-6.222V53.925z"/>
	<path fill="#7A97C5" d="M416.516,301.367h-0.456c-6.775-83.514-76.779-149.438-162.009-149.438
		c-89.698,0-162.677,72.979-162.677,162.677s72.979,162.677,162.677,162.677c84.765,0,154.507-65.207,161.941-148.062h0.523
		c6.125,0,11.068-4.962,11.068-11.078v-5.718C427.584,306.32,422.641,301.367,416.516,301.367z M254.062,457.9
		c-79.008,0-143.294-64.286-143.294-143.294s64.286-143.294,143.294-143.294c74.54,0,135.909,57.23,142.625,130.055H367.32
		c-6.59-56.688-54.827-100.844-113.259-100.844c-62.91,0-114.083,51.183-114.083,114.083s51.173,114.083,114.083,114.083
		c57.947,0,105.835-43.448,113.045-99.467h29.512C389.263,401.397,328.136,457.9,254.062,457.9z M347.384,329.222h9.915
		c-7.143,50.65-50.659,89.775-103.247,89.775c-57.56,0-104.391-46.831-104.391-104.391s46.831-104.391,104.391-104.391
		c53.072,0,96.918,39.833,103.46,91.152h-10.128c-6.116,0-11.068,4.953-11.068,11.068v5.718
		C336.316,324.26,341.269,329.222,347.384,329.222z"/>
	<path fill="#7A97C5" d="M196.705,239.495c-27.564,18.86-33.563,46.094-33.805,47.248c-0.552,2.617,1.124,5.185,3.741,5.738
		c0.339,0.078,0.669,0.107,1.008,0.107c2.239,0,4.255-1.56,4.739-3.848c0.048-0.233,5.408-24.549,29.793-41.239
		c2.21-1.512,2.772-4.526,1.26-6.736C201.929,238.555,198.925,237.983,196.705,239.495z"/>
	<g>
		<path id="XMLID_45_" fill="#B6CEE8" d="M155.505,349.057c11.474,41.481,53.087,71.749,100.853,71.749
			c46.862,0,83.401-30.336,95.715-70.621l-4.731,4.982c-27.333,14.695-60.736,15.378-88.724,1.812h0l-1.661-0.883
			C226.21,339.747,188.107,337.613,155.505,349.057z"/>
		<path id="XMLID_48_" fill="#B6CEE8" d="M314.472,301.296c-9.339,0-16.91,7.109-16.91,15.878c0,8.769,7.571,15.878,16.91,15.878
			s16.909-7.109,16.909-15.878C331.381,308.404,323.811,301.296,314.472,301.296z M321.236,317.174
			c-2.401,0-4.348-1.828-4.348-4.083c0-2.255,1.947-4.083,4.348-4.083c2.401,0,4.348,1.828,4.348,4.083
			C325.584,315.346,323.637,317.174,321.236,317.174z"/>
		<ellipse id="XMLID_42_" fill="#B6CEE8" cx="287.191" cy="329.381" rx="5.314" ry="4.99"/>
		<ellipse id="XMLID_44_" fill="#B6CEE8" cx="305.27" cy="344.826" rx="9.641" ry="9.052"/>
	</g>
</g>
</svg>
