<svg xmlns="http://www.w3.org/2000/svg" width="465.067" height="560" viewBox="247.467 0 465.067 560"><path fill="#FFF" d="M711.853 498.493L637.715 319.51c-1.888-4.559-7.116-6.726-11.675-4.836s-6.726 7.117-4.836 11.675l67.022 161.805-61.134-17.714a8.933 8.933 0 0 0-10.314 4.273l-30.704 55.753-71.914-173.619c83.003-16.006 145.894-89.187 145.894-176.791C660.055 80.773 579.283 0 480 0S299.943 80.773 299.943 180.057c0 40.214 13.254 77.388 35.621 107.393l-87.417 211.044a8.936 8.936 0 0 0 10.744 12.003l72.124-20.9 36.221 65.779a8.94 8.94 0 0 0 16.085-.891l69.268-167.229a8.934 8.934 0 0 0-4.836-11.675c-4.56-1.888-9.787.276-11.675 4.836l-62.154 150.051-30.701-55.753a8.937 8.937 0 0 0-10.315-4.273l-61.133 17.714 76.728-185.24c32.883 35.173 79.663 57.197 131.498 57.197 5.351 0 10.644-.249 15.877-.708l80.804 195.079A8.932 8.932 0 0 0 584.94 560a8.934 8.934 0 0 0 7.824-4.625l36.222-65.779 72.124 20.9a8.933 8.933 0 0 0 9.146-2.624 8.934 8.934 0 0 0 1.597-9.379zM317.816 180.057c0-89.428 72.756-162.184 162.184-162.184s162.183 72.756 162.183 162.184S569.428 342.24 480 342.24s-162.184-72.755-162.184-162.183z"/><path fill="#29C2FF" d="M583.253 146.507a8.938 8.938 0 0 0-7.02-6.052l-60.131-10.091-28.178-54.069a8.934 8.934 0 0 0-7.925-4.806 8.94 8.94 0 0 0-7.925 4.806l-28.179 54.069-60.13 10.091a8.935 8.935 0 1 0-4.898 15.074l42.715 43.507-8.984 60.306a8.938 8.938 0 0 0 12.821 9.317L480 241.478l54.577 27.18a8.931 8.931 0 0 0 9.236-.768 8.937 8.937 0 0 0 3.586-8.547l-8.983-60.306 42.715-43.508a8.934 8.934 0 0 0 2.122-9.022zm-60.707 43.184a8.935 8.935 0 0 0-2.462 7.577l7.113 47.748-43.213-21.52a8.948 8.948 0 0 0-3.984-.938c-1.364 0-2.73.312-3.983.938l-43.213 21.52 7.113-47.748a8.935 8.935 0 0 0-2.462-7.577l-33.82-34.448 47.608-7.99a8.933 8.933 0 0 0 6.446-4.683L480 99.761l22.311 42.81a8.94 8.94 0 0 0 6.446 4.683l47.61 7.99-33.821 34.447z"/><path fill="#FFF" d="M615.367 189.07c-4.893-.654-9.385 2.792-10.032 7.685-8.289 62.562-62.172 109.741-125.335 109.741-69.719 0-126.44-56.72-126.44-126.44S410.281 53.617 480 53.617c63.164 0 117.046 47.178 125.335 109.741.647 4.893 5.147 8.342 10.032 7.685a8.936 8.936 0 0 0 7.684-10.032C613.591 89.598 552.092 35.745 480 35.745c-79.574 0-144.312 64.737-144.312 144.312S400.426 324.367 480 324.367c72.092 0 133.591-53.853 143.053-125.266a8.936 8.936 0 0 0-7.686-10.031z"/></svg>