<svg xmlns="http://www.w3.org/2000/svg" width="216" height="92" viewBox="0 0 216 92"><path fill="#23539D" d="M-.307 20.311h41.024V-.164L30.442 10.111 20.168-.164 9.93 10.073-.307-.164v20.475z"/><path fill="#1974B8" d="M20.228 71.525c-11.316 0-20.489-9.173-20.489-20.489s9.173-20.489 20.489-20.489 20.488 9.173 20.488 20.489c.001 11.316-9.172 20.489-20.488 20.489"/><path fill="#2EA5DB" d="M-.307 81.763h41.024V92H-.307V81.763z"/><path fill="#23539D" d="M51.014 45.404V30.549h5.035v10.574h4.931v4.28h-9.966v.001zm17.688.42c-2.224 0-3.927-.58-5.108-1.742-1.183-1.16-1.773-2.664-1.773-4.511V30.55h4.993v8.477c0 .713.172 1.27.515 1.668s.828.598 1.458.598 1.115-.199 1.458-.598.515-.955.515-1.668V30.55h4.972v9.021c0 1.833-.611 3.333-1.836 4.501-1.226 1.168-2.956 1.752-5.194 1.752zm19.133-.42l-2.686-4.343-2.58 4.343h-5.916l5.309-7.742-5.036-7.112h6.022l2.35 3.902 2.245-3.902h5.874l-4.951 7.05 5.476 7.805-6.107-.001zm-36.82 25.701V56.25h5.035v10.575h4.931v4.28h-9.966z"/><path fill="#23539D" d="M60.813 71.105l5.854-14.855h5.309l5.791 14.855h-5.435l-.776-2.182h-4.721l-.734 2.182h-5.288zm9.631-6.001l-1.196-3.671-1.217 3.671h2.413zm14.664 6.421c-2.224 0-3.927-.58-5.108-1.742-1.183-1.16-1.773-2.664-1.773-4.511v-9.021h4.993v8.477c0 .713.172 1.27.515 1.668.343.399.828.598 1.458.598s1.115-.199 1.458-.598c.343-.398.515-.955.515-1.668v-8.477h4.972v9.021c0 1.833-.611 3.333-1.836 4.501s-2.956 1.752-5.194 1.752zm9.588-.42V56.25h4.973l4.238 7.532h.084l-.21-7.532h4.741v14.855h-5.098l-4.112-7.092h-.084l.209 7.092h-4.741zm22.554 0h-5.959V56.25h5.539c.979 0 1.889.07 2.728.21s1.646.388 2.423.744c.776.357 1.434.805 1.973 1.344.538.538.969 1.237 1.29 2.098.322.86.482 1.843.482 2.948 0 1.259-.23 2.381-.692 3.368-.461.986-1.095 1.772-1.898 2.36-.805.587-1.703 1.031-2.696 1.332s-2.057.451-3.19.451zm-.042-10.616h-1.112v6.336h.923c2.434 0 3.651-1.091 3.651-3.273 0-.951-.312-1.7-.934-2.245-.622-.546-1.465-.818-2.528-.818zm10.617 10.616V56.25h6.399c.783 0 1.511.077 2.182.23a6.641 6.641 0 0 1 1.899.756c.594.35 1.062.85 1.405 1.5s.514 1.431.514 2.339c0 .896-.228 1.693-.682 2.393-.455.699-1.095 1.237-1.92 1.615l3.776 6.022h-5.748l-2.854-5.309h-.147v5.309h-4.824zm4.783-10.973v2.392h.986c1.161 0 1.741-.412 1.741-1.238 0-.769-.511-1.153-1.531-1.153l-1.196-.001zm18.652 4.888v6.085h-4.993V65.02l-5.603-8.77h6.021l2.351 4.364 2.245-4.364h5.874l-5.895 8.77z"/><g fill="#253B71"><path d="M110.136 35.758a2.844 2.844 0 0 1-1.049.925 3.443 3.443 0 0 1-1.57.375c-.526 0-1.015-.094-1.465-.28s-.84-.445-1.17-.775-.588-.722-.775-1.175c-.187-.454-.28-.95-.28-1.49s.093-1.037.28-1.49c.187-.454.445-.845.775-1.175s.72-.588 1.17-.775.938-.28 1.465-.28c.44 0 .88.086 1.32.26.439.173.816.46 1.13.86l-.63.47a1.726 1.726 0 0 0-.3-.34 2.21 2.21 0 0 0-.436-.3 2.718 2.718 0 0 0-.524-.21 2.055 2.055 0 0 0-.561-.08c-.453 0-.86.083-1.22.25-.36.167-.665.39-.915.67a2.96 2.96 0 0 0-.575.975c-.133.37-.2.758-.2 1.165s.067.795.2 1.165c.134.37.325.695.575.975.25.28.555.503.915.67.359.167.767.25 1.22.25.187 0 .372-.017.555-.05.184-.034.363-.09.54-.17.177-.08.344-.188.5-.325a2.45 2.45 0 0 0 .436-.515l.589.42zM111.916 36.878h-.66v-7.56h.66v7.56zM113.965 34.718c.021.233.077.454.17.66a1.743 1.743 0 0 0 .9.89c.2.086.417.13.65.13.353 0 .658-.082.915-.245.256-.163.451-.352.585-.565l.51.42c-.28.354-.589.607-.925.76-.337.153-.699.23-1.085.23a2.5 2.5 0 0 1-.966-.185 2.273 2.273 0 0 1-.765-.515 2.44 2.44 0 0 1-.505-.78c-.123-.3-.185-.626-.185-.98s.06-.68.18-.98c.12-.3.286-.56.5-.78.213-.22.463-.392.75-.515.286-.123.597-.185.93-.185.354 0 .67.063.95.19s.515.295.705.505c.189.21.335.457.435.74.101.284.15.585.15.905v.3h-3.899zm3.181-.54c0-.446-.134-.808-.4-1.085-.267-.276-.64-.415-1.12-.415a1.722 1.722 0 0 0-1.504.94c-.09.18-.135.367-.135.56h3.159zM122.065 34.008v-.12c0-.806-.399-1.21-1.2-1.21-.546 0-1.023.184-1.43.55l-.399-.47c.439-.453 1.1-.68 1.979-.68.227 0 .445.033.655.1.21.067.392.168.545.305s.276.309.37.515c.093.207.14.453.14.74v2.09c0 .18.009.368.025.565s.035.358.055.485h-.64a4.728 4.728 0 0 1-.061-.76h-.02c-.193.313-.422.538-.686.675-.263.137-.585.205-.965.205-.207 0-.406-.028-.6-.085s-.365-.144-.516-.26a1.255 1.255 0 0 1-.494-1.025c0-.38.098-.678.295-.895a1.81 1.81 0 0 1 .739-.485c.297-.106.613-.173.95-.2.337-.026.646-.04.925-.04h.333zm-.339.54c-.167 0-.375.008-.625.025s-.49.057-.72.12c-.23.063-.427.162-.59.295a.67.67 0 0 0-.245.55c0 .153.031.285.095.395.063.11.148.2.255.27.106.07.226.12.355.15.13.03.262.045.395.045.24 0 .448-.04.625-.12s.325-.188.445-.325.208-.297.265-.48c.057-.184.085-.378.085-.585v-.34h-.34zM124.885 32.198c.014.127.021.252.025.375.003.124.005.249.005.375h.021c.073-.126.166-.243.279-.35.113-.107.24-.199.38-.275.141-.076.289-.136.445-.18s.312-.065.465-.065c.601 0 1.044.158 1.33.475.287.317.431.769.431 1.355v2.97h-.66v-2.59c0-.52-.09-.918-.271-1.195-.18-.276-.514-.415-1-.415-.033 0-.127.014-.28.04-.153.027-.314.1-.484.22s-.322.3-.455.54c-.134.24-.2.573-.2 1v2.4h-.66v-3.65c0-.126-.005-.287-.015-.48s-.021-.376-.035-.55h.679zM136.006 33.298a1.405 1.405 0 0 0-1.17-.62c-.273-.006-.519.037-.735.13a1.612 1.612 0 0 0-.905.985c-.08.23-.12.479-.12.745s.04.515.12.745.196.429.35.595.338.297.555.39.462.137.735.13c.26 0 .491-.06.695-.18.203-.12.361-.267.475-.44l.54.41c-.233.273-.497.475-.79.605s-.6.198-.92.205a2.63 2.63 0 0 1-1.03-.175 2.276 2.276 0 0 1-.785-.515 2.207 2.207 0 0 1-.494-.785c-.114-.303-.17-.631-.17-.985s.056-.682.17-.985c.113-.303.278-.565.494-.785.217-.22.479-.392.785-.515.307-.123.65-.182 1.03-.175.32.006.627.075.92.205.293.13.557.332.79.605l-.54.41zM138.226 36.878h-.66v-7.56h.66v7.56zM144.546 34.539c0 .354-.062.68-.186.98a2.334 2.334 0 0 1-1.3 1.295 2.656 2.656 0 0 1-1.005.185c-.36 0-.691-.062-.995-.185a2.359 2.359 0 0 1-.785-.515c-.22-.22-.392-.48-.515-.78-.123-.3-.185-.626-.185-.98s.062-.68.185-.98c.123-.3.295-.56.515-.78.221-.22.481-.392.785-.515.304-.123.635-.185.995-.185.366 0 .701.062 1.005.185.304.124.565.295.785.515.22.22.392.48.515.78.124.299.186.626.186.98zm-.72 0c0-.26-.042-.503-.125-.73a1.67 1.67 0 0 0-.91-.985c-.217-.096-.462-.145-.735-.145s-.519.049-.735.145a1.634 1.634 0 0 0-.55.395 1.822 1.822 0 0 0-.35.59c-.084.227-.125.47-.125.73s.041.503.125.73c.083.227.2.423.35.59.15.167.333.298.55.395s.462.145.735.145.519-.048.735-.145c.216-.097.401-.229.555-.395s.271-.363.355-.59c.083-.227.125-.471.125-.73zM148.165 32.798h-1.35v2.76c0 .173.017.315.05.425s.08.195.141.255c.06.06.131.102.215.125.083.023.175.035.274.035.113 0 .23-.017.351-.05.12-.034.229-.077.33-.13l.029.61a2.122 2.122 0 0 1-1.286.12.915.915 0 0 1-.375-.19c-.113-.093-.206-.22-.279-.38s-.11-.37-.11-.63v-2.95h-.99v-.6h.99v-1.32h.66v1.32h1.35v.6zM149.064 29.318h.66v3.63h.021c.073-.126.166-.243.279-.35.113-.107.24-.199.38-.275.141-.076.289-.136.445-.18s.312-.065.465-.065c.601 0 1.044.158 1.33.475.287.317.431.769.431 1.355v2.97h-.66v-2.59c0-.52-.09-.918-.271-1.195-.18-.276-.514-.415-1-.415-.033 0-.127.014-.28.04-.153.027-.314.1-.484.22s-.322.3-.455.54c-.134.24-.2.573-.2 1v2.4h-.66v-7.56zM155.085 34.718c.021.233.077.454.17.66a1.743 1.743 0 0 0 .9.89c.2.086.417.13.65.13.353 0 .658-.082.915-.245.256-.163.451-.352.585-.565l.51.42c-.28.354-.589.607-.925.76-.337.153-.699.23-1.085.23a2.5 2.5 0 0 1-.966-.185 2.273 2.273 0 0 1-.765-.515 2.44 2.44 0 0 1-.505-.78c-.123-.3-.185-.626-.185-.98s.06-.68.18-.98c.12-.3.286-.56.5-.78.213-.22.463-.392.75-.515.286-.123.597-.185.93-.185.354 0 .67.063.95.19s.515.295.705.505c.189.21.335.457.435.74.101.284.15.585.15.905v.3h-3.899zm3.181-.54c0-.446-.134-.808-.4-1.085-.267-.276-.64-.415-1.12-.415a1.722 1.722 0 0 0-1.504.94c-.09.18-.135.367-.135.56h3.159zM162.665 33.309c-.101-.193-.233-.347-.4-.46s-.37-.17-.609-.17c-.114 0-.229.014-.346.04a1.042 1.042 0 0 0-.314.125.695.695 0 0 0-.226.215.568.568 0 0 0-.085.32c0 .22.077.38.23.48s.383.187.689.26l.67.16c.327.074.599.222.815.445.217.223.325.501.325.835 0 .253-.052.472-.155.655-.104.184-.24.333-.41.45s-.365.202-.585.255-.443.08-.67.08c-.36 0-.695-.068-1.005-.205s-.575-.372-.795-.705l.57-.39c.133.213.301.384.505.51.203.126.444.19.725.19.134 0 .267-.015.4-.045s.251-.077.354-.14.187-.145.25-.245a.642.642 0 0 0 .096-.35c0-.233-.087-.402-.261-.505a2.281 2.281 0 0 0-.63-.245l-.64-.15a4.183 4.183 0 0 1-.325-.1 1.554 1.554 0 0 1-.4-.21 1.269 1.269 0 0 1-.335-.365 1.035 1.035 0 0 1-.14-.555 1.239 1.239 0 0 1 .536-1.07c.163-.113.348-.198.555-.255s.42-.085.641-.085c.326 0 .63.063.909.19.28.126.497.343.65.65l-.589.39zM104.266 43.198l1.08 3.8h.02l1.25-3.8h.681l1.25 3.8h.02l1.08-3.8h.78l-1.48 4.681h-.739l-1.24-3.84h-.021l-1.239 3.84h-.74l-1.48-4.681h.778zM111.285 40.318h.66v3.63h.021c.073-.126.166-.243.279-.35.113-.107.24-.199.38-.275.141-.076.289-.136.445-.18s.312-.065.465-.065c.601 0 1.044.158 1.33.475.287.317.431.769.431 1.355v2.971h-.66v-2.59c0-.52-.09-.918-.271-1.195-.18-.276-.514-.415-1-.415-.033 0-.127.014-.28.04-.153.027-.314.1-.484.22s-.322.3-.455.54c-.134.24-.2.573-.2 1v2.4h-.66v-7.561zM117.806 41.398c0 .14-.05.255-.149.345-.101.09-.21.135-.33.135s-.23-.045-.33-.135c-.101-.09-.15-.205-.15-.345s.05-.255.15-.345c.1-.09.21-.135.33-.135s.229.045.33.135a.447.447 0 0 1 .149.345zm-.15 6.481h-.66v-4.681h.66v4.681zM122.655 44.298a1.405 1.405 0 0 0-1.17-.62c-.273-.006-.519.037-.735.13a1.612 1.612 0 0 0-.905.985c-.08.23-.12.479-.12.745s.04.515.12.745.196.429.35.595.338.297.555.39c.217.094.462.137.735.13.26 0 .491-.06.695-.18.203-.12.361-.267.475-.44l.54.41c-.233.273-.497.476-.79.605s-.6.198-.92.205a2.611 2.611 0 0 1-1.03-.176 2.276 2.276 0 0 1-.785-.515 2.207 2.207 0 0 1-.494-.785c-.114-.303-.17-.631-.17-.985s.056-.682.17-.985c.113-.303.278-.565.494-.785.217-.22.479-.392.785-.515.307-.123.65-.182 1.03-.175.32.006.627.075.92.205.293.13.557.332.79.605l-.54.411zM124.065 40.318h.66v3.63h.021c.073-.126.166-.243.279-.35.113-.107.24-.199.38-.275.141-.076.289-.136.445-.18s.312-.065.465-.065c.601 0 1.044.158 1.33.475.287.317.431.769.431 1.355v2.971h-.66v-2.59c0-.52-.09-.918-.271-1.195-.18-.276-.514-.415-1-.415-.033 0-.127.014-.28.04-.153.027-.314.1-.484.22s-.322.3-.455.54c-.134.24-.2.573-.2 1v2.4h-.66v-7.561zM134.146 47.068l1.43-3.87h.801l-2.341 5.9c-.14.36-.318.646-.534.86-.217.213-.529.319-.936.319-.1 0-.201-.003-.305-.01s-.205-.026-.306-.06l.07-.641c.141.073.307.11.5.11.233 0 .417-.073.55-.22.134-.147.25-.354.351-.62l.34-.9-1.92-4.74h.83l1.47 3.872zM141.955 45.539c0 .354-.062.68-.186.98-.123.3-.295.561-.515.78s-.481.392-.785.515-.639.186-1.005.186c-.36 0-.691-.062-.995-.186s-.564-.295-.785-.515c-.22-.22-.392-.48-.515-.78-.123-.3-.185-.626-.185-.98s.062-.68.185-.98c.123-.3.295-.56.515-.78.221-.22.481-.392.785-.515.304-.123.635-.185.995-.185.366 0 .701.062 1.005.185.304.124.565.295.785.515.22.22.392.48.515.78.125.299.186.626.186.98zm-.72 0c0-.26-.042-.503-.125-.73a1.67 1.67 0 0 0-.91-.985c-.217-.096-.462-.145-.735-.145s-.519.049-.735.145a1.634 1.634 0 0 0-.55.395 1.822 1.822 0 0 0-.35.59c-.084.227-.125.47-.125.73s.041.503.125.73c.083.227.2.423.35.59.15.167.333.299.55.396s.462.145.735.145.519-.048.735-.145a1.683 1.683 0 0 0 .91-.986c.083-.227.125-.471.125-.73zM146.535 47.879a4.842 4.842 0 0 1-.024-.375 11.568 11.568 0 0 1-.005-.375h-.021c-.073.127-.167.243-.28.35s-.239.198-.38.275c-.14.076-.288.137-.444.18a1.756 1.756 0 0 1-.465.065c-.601 0-1.044-.158-1.33-.476-.287-.316-.431-.768-.431-1.355v-2.97h.66v2.59c0 .26.021.49.061.69.04.2.107.368.204.505s.227.24.391.311c.163.069.368.104.615.104.033 0 .126-.013.279-.04.153-.026.315-.1.485-.22s.321-.3.455-.54c.133-.24.2-.574.2-1v-2.4h.66v3.65c0 .126.005.287.015.48s.021.376.035.55h-.68zM156.165 47.879h-.659v-.78h-.021c-.106.16-.233.297-.38.41s-.3.207-.46.28-.325.126-.495.159a2.637 2.637 0 0 1-1.49-.135 2.354 2.354 0 0 1-.785-.515c-.22-.22-.392-.48-.515-.78-.123-.3-.185-.626-.185-.98s.062-.68.185-.98c.123-.3.295-.56.515-.78.221-.22.482-.392.785-.515a2.656 2.656 0 0 1 1.49-.135c.17.033.335.087.495.16s.313.167.46.28.273.25.38.41h.021v-3.66h.659v7.561zm-4.269-2.34c0 .26.041.503.125.73a1.667 1.667 0 0 0 .91.986c.216.097.461.145.734.145a1.892 1.892 0 0 0 1.341-.541c.166-.167.296-.363.39-.59.093-.227.14-.47.14-.73s-.047-.503-.14-.73a1.807 1.807 0 0 0-.39-.59 1.836 1.836 0 0 0-.596-.395 1.914 1.914 0 0 0-.745-.145c-.273 0-.519.049-.734.145a1.69 1.69 0 0 0-.556.395 1.763 1.763 0 0 0-.354.59 2.077 2.077 0 0 0-.125.73zM158.064 45.718c.021.233.077.454.17.66a1.743 1.743 0 0 0 .9.89c.2.087.417.13.65.13.353 0 .658-.081.915-.245.256-.163.451-.352.585-.565l.51.42c-.28.354-.589.606-.925.76-.337.153-.699.23-1.085.23-.347 0-.669-.062-.966-.186-.296-.123-.552-.295-.765-.515s-.382-.48-.505-.78c-.123-.3-.185-.626-.185-.98s.06-.68.18-.98c.12-.3.286-.56.5-.78.213-.22.463-.392.75-.515.286-.123.597-.185.93-.185.354 0 .67.063.95.19s.515.295.705.505c.189.21.335.457.435.74.101.284.15.585.15.905v.3h-3.899zm3.181-.54c0-.446-.134-.808-.4-1.085-.267-.276-.64-.415-1.12-.415a1.722 1.722 0 0 0-1.504.94c-.09.18-.135.367-.135.56h3.159zM165.646 44.309c-.101-.193-.233-.347-.4-.46s-.37-.17-.609-.17c-.114 0-.229.014-.346.04a1.042 1.042 0 0 0-.314.125.695.695 0 0 0-.226.215.568.568 0 0 0-.085.32c0 .22.077.38.23.48s.383.187.689.26l.67.16c.327.074.599.222.815.445.217.223.325.501.325.835 0 .253-.052.472-.155.655s-.24.333-.41.45a1.78 1.78 0 0 1-.585.255 2.85 2.85 0 0 1-.67.08c-.36 0-.695-.068-1.005-.205s-.575-.372-.795-.705l.57-.391c.133.213.301.384.505.511.203.126.444.189.725.189.134 0 .267-.015.4-.045s.251-.076.354-.14.187-.146.25-.246a.642.642 0 0 0 .096-.35c0-.233-.087-.402-.261-.505a2.281 2.281 0 0 0-.63-.245l-.64-.15a4.183 4.183 0 0 1-.325-.1 1.554 1.554 0 0 1-.4-.21 1.269 1.269 0 0 1-.335-.365 1.035 1.035 0 0 1-.14-.555 1.239 1.239 0 0 1 .536-1.07c.163-.113.348-.198.555-.255s.42-.085.641-.085c.326 0 .63.063.909.19.28.126.497.343.65.65l-.589.392zM167.885 45.718c.021.233.077.454.17.66a1.743 1.743 0 0 0 .9.89c.2.087.417.13.65.13.353 0 .658-.081.915-.245.256-.163.451-.352.585-.565l.51.42c-.28.354-.589.606-.925.76-.337.153-.699.23-1.085.23-.347 0-.669-.062-.966-.186-.296-.123-.552-.295-.765-.515s-.382-.48-.505-.78c-.123-.3-.185-.626-.185-.98s.06-.68.18-.98c.12-.3.286-.56.5-.78.213-.22.463-.392.75-.515.286-.123.597-.185.93-.185.354 0 .67.063.95.19s.515.295.705.505c.189.21.335.457.435.74.101.284.15.585.15.905v.3h-3.899zm3.18-.54c0-.446-.134-.808-.4-1.085-.267-.276-.64-.415-1.12-.415a1.722 1.722 0 0 0-1.504.94c-.09.18-.135.367-.135.56h3.159zM173.055 44.658c0-.207-.005-.417-.015-.63-.011-.213-.019-.49-.025-.83h.65v.87h.02a1.561 1.561 0 0 1 .514-.68 1.57 1.57 0 0 1 .431-.225c.163-.057.348-.085.555-.085.187 0 .35.02.49.06l-.13.65a1.123 1.123 0 0 0-.38-.05c-.254 0-.471.048-.65.145s-.33.22-.45.37-.208.312-.265.485-.085.34-.085.5v2.641h-.66v-3.221zM178.365 47.879h-.74l-1.9-4.681h.78l1.5 3.94h.021l1.489-3.94h.75l-1.9 4.681zM181.585 45.718c.021.233.077.454.17.66a1.743 1.743 0 0 0 .9.89c.2.087.417.13.65.13.353 0 .658-.081.915-.245.256-.163.451-.352.585-.565l.51.42c-.28.354-.589.606-.925.76-.337.153-.699.23-1.085.23-.347 0-.669-.062-.966-.186-.296-.123-.552-.295-.765-.515s-.382-.48-.505-.78c-.123-.3-.185-.626-.185-.98s.06-.68.18-.98c.12-.3.286-.56.5-.78.213-.22.463-.392.75-.515.286-.123.597-.185.93-.185.354 0 .67.063.95.19s.515.295.705.505c.189.21.335.457.435.74.101.284.15.585.15.905v.3h-3.899zm3.181-.54c0-.446-.134-.808-.4-1.085-.267-.276-.64-.415-1.12-.415a1.722 1.722 0 0 0-1.504.94c-.09.18-.135.367-.135.56h3.159z"/></g></svg>