<svg xmlns="http://www.w3.org/2000/svg" width="157.463" height="92.164" viewBox="0 0 157.463 92.164"><path fill-rule="evenodd" clip-rule="evenodd" fill="#FFF" d="M0 20.475h41.024V0L30.749 10.275 20.475 0 10.237 10.237 0 0zm20.535 51.214C9.219 71.689.046 62.516.046 51.2s9.173-20.489 20.489-20.489S41.023 39.884 41.023 51.2c.001 11.316-9.172 20.489-20.488 20.489M0 81.927h41.024v10.237H0z"/><path fill="#FFF" d="M51.321 45.568V30.713h5.035v10.574h4.931v4.28h-9.966zm17.688.42c-2.224 0-3.927-.58-5.108-1.742-1.183-1.16-1.773-2.664-1.773-4.511v-9.021h4.993v8.477c0 .713.172 1.27.515 1.668s.828.598 1.458.598 1.115-.199 1.458-.598.515-.955.515-1.668v-8.477h4.972v9.021c0 1.833-.611 3.333-1.836 4.501-1.226 1.168-2.956 1.752-5.194 1.752zm19.133-.42l-2.686-4.343-2.58 4.343H76.96l5.309-7.742-5.036-7.112h6.022l2.35 3.902 2.245-3.902h5.874l-4.951 7.05 5.476 7.805h-6.107zm-36.82 25.701V56.414h5.035v10.575h4.931v4.28h-9.966z"/><path fill="#FFF" d="M61.12 71.269l5.854-14.855h5.309l5.791 14.855h-5.435l-.776-2.182h-4.721l-.734 2.182H61.12zm9.631-6.001l-1.196-3.671-1.217 3.671h2.413zm14.664 6.421c-2.224 0-3.927-.58-5.108-1.742-1.183-1.16-1.773-2.664-1.773-4.511v-9.021h4.993v8.477c0 .713.172 1.27.515 1.668.343.399.828.598 1.458.598s1.115-.199 1.458-.598c.343-.398.515-.955.515-1.668v-8.477h4.972v9.021c0 1.833-.611 3.333-1.836 4.501-1.225 1.168-2.956 1.752-5.194 1.752zm9.588-.42V56.414h4.973l4.238 7.532h.084l-.21-7.532h4.741v14.855h-5.098l-4.112-7.092h-.084l.209 7.092h-4.741zm22.554 0h-5.959V56.414h5.539c.979 0 1.889.07 2.728.21s1.646.388 2.423.744c.776.357 1.434.805 1.973 1.344.538.538.969 1.237 1.29 2.098.322.86.482 1.843.482 2.948 0 1.259-.23 2.381-.692 3.368-.461.986-1.095 1.772-1.898 2.36-.805.587-1.703 1.031-2.696 1.332s-2.057.451-3.19.451zm-.042-10.616h-1.112v6.336h.923c2.434 0 3.651-1.091 3.651-3.273 0-.951-.312-1.7-.934-2.245-.622-.546-1.465-.818-2.528-.818zm10.617 10.616V56.414h6.399c.783 0 1.511.077 2.182.23a6.641 6.641 0 0 1 1.899.756c.594.35 1.062.85 1.405 1.5s.514 1.431.514 2.339c0 .896-.228 1.693-.682 2.393-.455.699-1.095 1.237-1.92 1.615l3.776 6.022h-5.748l-2.854-5.309h-.147v5.309h-4.824zm4.783-10.973v2.392h.986c1.161 0 1.741-.412 1.741-1.238 0-.769-.511-1.153-1.531-1.153h-1.196zm18.652 4.888v6.085h-4.993v-6.085l-5.603-8.77h6.021l2.351 4.364 2.245-4.364h5.874l-5.895 8.77z"/></svg>