<?xml version="1.0" encoding="utf-8"?>
<!-- Generator: Adobe Illustrator 19.0.0, SVG Export Plug-In . SVG Version: 6.00 Build 0)  -->
<svg version="1.1" id="Layer_1" xmlns="http://www.w3.org/2000/svg" xmlns:xlink="http://www.w3.org/1999/xlink" x="0px" y="0px"
	 viewBox="44 244.6 508 107.7" style="enable-background:new 44 244.6 508 107.7;" xml:space="preserve">
<style type="text/css">
	.st0{fill:#FFFFFF;}
</style>
<g id="Слой_x0020_1">
	<g>
		<path class="st0" d="M72.6,346.5h-7.9h-0.4h-1v-1v-65l-12.7,4l-1,0.3l-0.3-1l-2-6.8l-0.3-1l1-0.3l16.5-5.7l1.8-0.6l0.2-0.1h0.2
			h6.2l0,0h1v76.3v1H72.6L72.6,346.5z M189.8,250.9l-2.2,8.7l-0.1,0.6l-0.6,0.2l-14.1,4.4l-1,0.3l-0.3-1l-2-6.8l-0.3-1l0.9-0.3
			l18.3-6.3l1.8-0.6L189.8,250.9z M536.9,336.4c-6.9,7-16.6,11.4-28,11.4c-11.5,0-21.1-4.4-27.9-11.4c-7.2-7.3-11.4-17.5-11.4-28.6
			c0-10.9,4.2-21.2,11.5-28.5c6.9-7,16.6-11.4,28-11.4c11.4,0,21,4.4,27.9,11.3c7.2,7.3,11.4,17.6,11.4,28.6
			C548.4,318.8,544.2,329.1,536.9,336.4z M488.8,329.3c5.1,5.3,12.1,8.6,20.3,8.6c8.2,0,15.2-3.2,20.2-8.5c5.1-5.4,8.2-13,8.2-21.5
			c0-8.4-3.1-16-8.3-21.4c-5-5.3-12.1-8.6-20.3-8.6s-15.2,3.2-20.2,8.5c-5.2,5.4-8.2,13-8.2,21.5
			C480.5,316.3,483.6,323.8,488.8,329.3z M120.7,346.1l-41.8-53.1v-17.1l40.1,51.6v-57.3v-1h1h8.3h1v1v75.2v1h-1h-6.8H121
			L120.7,346.1z M73.6,286.5L73.6,286.5v-17.2V286.5z M203.5,338.6c-5.7,6.1-13.9,9.2-23.9,9.2c-9.8,0-18-3.1-23.7-9
			c-5.4-5.7-8.6-14-8.6-24.7v-43.7v-1h1h8.5h1v1v43.2c0,7.8,2,13.9,5.8,18c3.7,4.1,9.2,6.3,16.2,6.3c6.7,0,12.2-2,16-6.2
			c3.6-3.9,5.6-9.8,5.6-17.6v-43.7v-1h1h8.5h1v1v43.1C212,324.4,208.9,332.8,203.5,338.6z M239.3,346.5h-8.3h-1v-1v-75.2v-1h1h8.6
			h0.5l0.3,0.5l26.5,39.7l26.5-39.7l0.3-0.5h0.5h8.6h1v1v75.2v1h-1h-8.5h-1v-1V288L268,325.4l-0.3,0.5h-0.5h-0.4h-0.6l-0.3-0.5
			l-25.5-37.4v57.4v1H239.3z M379.2,346.5h-54.9h-1v-1v-75.2v-1h1h54.4h1v1v7.7v1h-1h-44.8v23.6h40h1v1v7.7v1h-1h-40v24.2h45.4h1v1
			v7.7v1H379.2z M404.8,346.5h-8.5h-1v-1v-75.2v-1h1h32.3c4.7,0,8.9,0.7,12.6,2c3.8,1.3,7.1,3.3,9.6,5.8c2,1.9,3.5,4.3,4.6,7
			c1,2.7,1.6,5.6,1.6,8.7c0,6.5-2.3,11.7-6.1,15.6c-3.4,3.5-8.1,5.8-13.5,7.1l22.1,29.4l1.3,1.7h-2.1h-10.4h-0.5l-0.3-0.4
			l-21.5-28.8h-19.9v28.1v1H404.8z M405.8,279.2v28.4h22c5.5,0,10.2-1.4,13.4-4.1c3.1-2.5,4.9-6.1,4.9-10.6c0-4.3-1.6-7.7-4.7-10.1
			c-3.1-2.4-7.7-3.7-13.5-3.7H405.8z"/>
	</g>
</g>
</svg>
