<svg xmlns="http://www.w3.org/2000/svg" width="454.479" height="512" viewBox="28.765 0 454.479 512"><g fill="#B6CEE8"><path d="M483.244 103.683V42.877C483.244 19.238 463.996 0 440.358 0H71.642C48.004 0 28.765 19.238 28.765 42.877v60.807c0 9.401 6.319 17.271 14.906 19.82-9.052 7.87-14.906 19.326-14.906 32.225v313.414c0 23.629 19.229 42.857 42.877 42.857h368.716c23.638 0 42.886-19.229 42.886-42.877V155.728c0-12.91-5.854-24.365-14.906-32.225 8.578-2.549 14.906-10.419 14.906-19.82zM48.149 42.877c0-12.958 10.535-23.493 23.483-23.493h368.716c12.958 0 23.503 10.535 23.503 23.493v60.807c0 .756-.611 1.376-1.376 1.376H49.516a1.355 1.355 0 0 1-1.367-1.376V42.877zm415.712 426.256c0 12.958-10.545 23.493-23.503 23.493H71.642c-12.948 0-23.493-10.535-23.493-23.474V155.728c0-12.958 10.535-23.493 23.493-23.493h368.716c12.958 0 23.503 10.535 23.503 23.493-.01 0-.01 313.405 0 313.405z"/><path d="M105.273 86.441h92.644c8.771 0 15.914-7.133 15.914-15.914V53.935c0-8.771-7.143-15.914-15.914-15.914h-92.644c-8.761 0-15.904 7.133-15.914 15.914v16.592c0 8.772 7.143 15.914 15.914 15.914zm-6.222-32.496c0-3.431 2.801-6.232 6.222-6.232h92.644a6.229 6.229 0 0 1 6.222 6.222v16.592a6.229 6.229 0 0 1-6.222 6.222h-92.644a6.229 6.229 0 0 1-6.222-6.222V53.945zM322.35 86.432h8.286c8.771 0 15.924-7.133 15.924-15.914V53.925c0-8.771-7.143-15.914-15.924-15.914h-8.286c-8.761 0-15.904 7.133-15.904 15.914v16.592c.01 8.772 7.143 15.915 15.904 15.915zm-6.212-32.507c0-3.431 2.782-6.222 6.212-6.222h8.286c3.431 0 6.232 2.791 6.232 6.222v16.592c0 3.431-2.791 6.222-6.232 6.222h-8.286c-3.431 0-6.212-2.791-6.212-6.222V53.925zm66.592 32.507h8.286c8.752 0 15.895-7.133 15.924-15.914V53.925c0-8.771-7.143-15.914-15.924-15.914h-8.286c-8.771 0-15.914 7.133-15.914 15.914v16.592c.01 8.772 7.143 15.915 15.914 15.915zm-6.212-32.507a6.229 6.229 0 0 1 6.222-6.222h8.287c3.431 0 6.232 2.791 6.232 6.222v16.583c-.01 3.431-2.801 6.232-6.232 6.232h-8.287a6.229 6.229 0 0 1-6.222-6.222V53.925zm39.998 247.442h-.456c-6.775-83.514-76.779-149.438-162.009-149.438-89.698 0-162.677 72.979-162.677 162.677s72.979 162.677 162.677 162.677c84.765 0 154.507-65.207 161.941-148.062h.523c6.125 0 11.068-4.962 11.068-11.078v-5.718c.001-6.105-4.942-11.058-11.067-11.058zM254.062 457.9c-79.008 0-143.294-64.286-143.294-143.294s64.286-143.294 143.294-143.294c74.54 0 135.909 57.23 142.625 130.055H367.32c-6.59-56.688-54.827-100.844-113.259-100.844-62.91 0-114.083 51.183-114.083 114.083s51.173 114.083 114.083 114.083c57.947 0 105.835-43.448 113.045-99.467h29.512C389.263 401.397 328.136 457.9 254.062 457.9zm93.322-128.678h9.915c-7.143 50.65-50.659 89.775-103.247 89.775-57.56 0-104.391-46.831-104.391-104.391s46.831-104.391 104.391-104.391c53.072 0 96.918 39.833 103.46 91.152h-10.128c-6.116 0-11.068 4.953-11.068 11.068v5.718c0 6.107 4.953 11.069 11.068 11.069z"/><path d="M196.705 239.495c-27.564 18.86-33.563 46.094-33.805 47.248a4.845 4.845 0 0 0 3.741 5.738 4.85 4.85 0 0 0 5.747-3.741c.048-.233 5.408-24.549 29.793-41.239a4.844 4.844 0 0 0 1.26-6.736 4.844 4.844 0 0 0-6.736-1.27z"/></g></svg>