<svg xmlns="http://www.w3.org/2000/svg" width="512" height="512" viewBox="0 0 512 512"><g fill="#82A7CF"><path d="M511.972 445.298l-.025-.305a65.54 65.54 0 0 0-.603-7.804l-7.283-94.696c5.061-11.305 7.937-23.503 7.937-36.667 0-.19-.025-.28-.025-.28h.016l-.049-.965c-.041-3.312-.28-6.425-.677-9.637l-15.799-228.88h-.016C495.142 33.032 465.653 0 429.416 0H90.838C54.625 0 25.152 29.299 24.805 65.428h-.009L8.9 272.028c-.338 2.56-.562 5.153-.603 7.804l-.041.305h-.008c.009.049.009.636.009.636h.016L.569 411.457c-.305 2.775-.446 5.715-.495 8.564l-.058 1.14h.009s-.025.074-.025.24C0 471.493 40.754 512 90.839 512h355.096C482.363 512 512 482.363 512 445.936c-.004-.217-.037-.423-.028-.638zM33.03 66.064h8.259c0-27.326 22.222-49.548 49.548-49.548h338.579c27.326 0 49.548 22.222 49.548 49.548h8.259l-8.241.569 12.519 181.529c-16.673-20.397-42.001-33.453-70.342-33.453H74.321c-17.822 0-33.982 7.119-45.873 18.63L41.265 66.7l-8.235-.636zM22.393 321.478c6.673 8.497 15.36 15.327 25.36 19.736-10.819 5.854-20.283 13.874-27.904 23.42l2.544-43.156zm464.948 17.101h-.092l.009.47c-12.328 24.007-37.301 40.819-66.098 40.819H123.87c-22.767 0-41.291 18.523-41.291 41.291 0 22.768 18.523 41.291 41.291 41.291h297.289v-16.516H123.87c-13.659 0-24.775-11.115-24.775-24.775 0-13.66 11.115-24.773 24.775-24.773h322.064c24.898 0 45.502 18.473 48.979 42.413l.562 7.325c-.111 27.234-22.284 49.358-49.543 49.358H90.838c-40.944 0-74.256-33.281-74.314-74.207l.495-8.49c4.179-37.054 35.666-65.948 73.819-65.948h322.064c18.218 0 33.032-14.814 33.032-33.032s-14.814-33.032-33.032-33.032H82.58v16.516h330.321c9.108 0 16.516 7.408 16.516 16.516s-7.408 16.516-16.516 16.516H74.321c-27.259 0-49.432-22.124-49.539-49.349l.562-7.325c3.476-23.949 24.081-42.422 48.979-42.422h346.838c37.755 0 68.946 28.316 73.645 64.808l.669 9.39c-.033 12.048-2.998 24.898-8.134 33.156zm4.464 59.921a66.148 66.148 0 0 0-24.327-14.946 91.5 91.5 0 0 0 21.792-18.093l2.535 33.039z"/><path d="M82.579 33.032h16.516v16.516H82.579zm33.032 0h16.516v16.516h-16.516zm33.032 0h16.516v16.516h-16.516zm264.257 0h16.516v16.516H412.9zm-33.032 0h16.516v16.516h-16.516zM140.386 173.42h16.516v16.516h-16.516zm-74.323 0h57.807v16.516H66.063z"/></g></svg>