<svg xmlns="http://www.w3.org/2000/svg" xmlns:xlink="http://www.w3.org/1999/xlink" width="591.333" height="381.772" viewBox="168.667 89.114 591.333 381.772"><path fill="#FFF" d="M657.829 368.259c-13.684 0-26.683 5.359-36.49 15.052-9.807 9.807-15.28 22.578-15.28 36.261 0 13.684 5.359 26.455 15.28 36.261 9.921 9.693 22.806 15.052 36.49 15.052 28.051 0 50.857-23.034 50.857-51.313s-22.805-51.313-50.857-51.313zm0 79.821c-15.736 0-28.964-12.999-28.964-28.507 0-15.508 13.227-28.507 28.964-28.507 15.508 0 28.051 12.771 28.051 28.507.001 15.736-12.543 28.507-28.051 28.507zm13.228-250.752c-2.053-1.939-4.789-2.965-7.64-2.965H604.92c-6.272 0-11.403 5.131-11.403 11.403v93.504c0 6.272 5.131 11.403 11.403 11.403h92.82c6.272 0 11.403-5.131 11.403-11.403v-62.602c0-3.193-1.368-6.272-3.763-8.438l-34.323-30.902zm15.28 90.54h-70.014v-70.812h42.647l27.367 24.63v46.182zm-306.968 80.391c-13.684 0-26.683 5.359-36.49 15.052-9.807 9.807-15.28 22.578-15.28 36.261 0 13.684 5.359 26.455 15.28 36.261 9.921 9.693 22.806 15.052 36.49 15.052 28.051 0 50.857-23.034 50.857-51.313s-22.806-51.313-50.857-51.313zm0 79.821c-15.736 0-28.964-12.999-28.964-28.507 0-15.508 13.227-28.507 28.964-28.507 15.508 0 28.051 12.771 28.051 28.507s-12.543 28.507-28.051 28.507zm-76.058-65.795h-22.92v-30.332c0-6.272-5.131-11.403-11.403-11.403s-11.403 5.131-11.403 11.403v41.735c0 6.272 5.131 11.403 11.403 11.403h34.323c6.272 0 11.403-5.131 11.403-11.403s-5.131-11.403-11.403-11.403zm57.813-62.147c0-6.272-5.131-11.403-11.403-11.403H211.403c-6.272 0-11.403 5.131-11.403 11.403s5.131 11.403 11.403 11.403h138.318a11.363 11.363 0 0 0 11.403-11.403zm-126.573-41.164l138.318.798c6.272 0 11.403-5.017 11.517-11.289.114-6.386-5.017-11.517-11.289-11.517l-138.318-.798h-.114c-6.272 0-11.403 5.017-11.403 11.289-.114 6.385 5.017 11.517 11.289 11.517zm23.262-51.77h138.318c6.272 0 11.403-5.131 11.403-11.403s-5.131-11.403-11.403-11.403H257.813c-6.272 0-11.403 5.131-11.403 11.403s5.131 11.403 11.403 11.403zm497.968-15.394l-81.645-67.62c-2.053-1.71-4.561-2.623-7.298-2.623h-96.013v-41.051c0-6.272-5.131-11.403-11.403-11.403H268.988c-6.272 0-11.403 5.131-11.403 11.403v83.47c0 6.272 5.131 11.403 11.403 11.403s11.403-5.131 11.403-11.403V111.92h267.742v270.364h-93.504c-6.272 0-11.403 5.131-11.403 11.403s5.131 11.403 11.403 11.403h139.23c6.272 0 11.403-5.131 11.403-11.403s-5.131-11.403-11.403-11.403h-22.92v-217.91h91.908l74.347 61.576-.798 156.107h-11.859c-6.272 0-11.403 5.131-11.403 11.403s5.131 11.403 11.403 11.403h23.148c6.272 0 11.403-5.017 11.403-11.289L760 220.705c-.114-3.421-1.596-6.728-4.219-8.895z"/><defs><path id="a" d="M168.667 200.667h240.667v136H168.667z"/></defs><clipPath id="b"><use xlink:href="#a" overflow="visible"/></clipPath><path clip-path="url(#b)" fill="#29C2FF" d="M657.829 368.259c-13.684 0-26.683 5.359-36.49 15.052-9.807 9.807-15.28 22.578-15.28 36.261 0 13.684 5.359 26.455 15.28 36.261 9.921 9.693 22.806 15.052 36.49 15.052 28.051 0 50.857-23.034 50.857-51.313s-22.805-51.313-50.857-51.313zm0 79.821c-15.736 0-28.964-12.999-28.964-28.507 0-15.508 13.227-28.507 28.964-28.507 15.508 0 28.051 12.771 28.051 28.507.001 15.736-12.543 28.507-28.051 28.507zm13.228-250.752c-2.053-1.939-4.789-2.965-7.64-2.965H604.92c-6.272 0-11.403 5.131-11.403 11.403v93.504c0 6.272 5.131 11.403 11.403 11.403h92.82c6.272 0 11.403-5.131 11.403-11.403v-62.602c0-3.193-1.368-6.272-3.763-8.438l-34.323-30.902zm15.28 90.54h-70.014v-70.812h42.647l27.367 24.63v46.182zm-306.968 80.391c-13.684 0-26.683 5.359-36.49 15.052-9.807 9.807-15.28 22.578-15.28 36.261 0 13.684 5.359 26.455 15.28 36.261 9.921 9.693 22.806 15.052 36.49 15.052 28.051 0 50.857-23.034 50.857-51.313s-22.806-51.313-50.857-51.313zm0 79.821c-15.736 0-28.964-12.999-28.964-28.507 0-15.508 13.227-28.507 28.964-28.507 15.508 0 28.051 12.771 28.051 28.507s-12.543 28.507-28.051 28.507zm-76.058-65.795h-22.92v-30.332c0-6.272-5.131-11.403-11.403-11.403s-11.403 5.131-11.403 11.403v41.735c0 6.272 5.131 11.403 11.403 11.403h34.323c6.272 0 11.403-5.131 11.403-11.403s-5.131-11.403-11.403-11.403zm57.813-62.147c0-6.272-5.131-11.403-11.403-11.403H211.403c-6.272 0-11.403 5.131-11.403 11.403s5.131 11.403 11.403 11.403h138.318a11.363 11.363 0 0 0 11.403-11.403zm-126.573-41.164l138.318.798c6.272 0 11.403-5.017 11.517-11.289.114-6.386-5.017-11.517-11.289-11.517l-138.318-.798h-.114c-6.272 0-11.403 5.017-11.403 11.289-.114 6.385 5.017 11.517 11.289 11.517zm23.262-51.77h138.318c6.272 0 11.403-5.131 11.403-11.403s-5.131-11.403-11.403-11.403H257.813c-6.272 0-11.403 5.131-11.403 11.403s5.131 11.403 11.403 11.403zm497.968-15.394l-81.645-67.62c-2.053-1.71-4.561-2.623-7.298-2.623h-96.013v-41.051c0-6.272-5.131-11.403-11.403-11.403H268.988c-6.272 0-11.403 5.131-11.403 11.403v83.47c0 6.272 5.131 11.403 11.403 11.403s11.403-5.131 11.403-11.403V111.92h267.742v270.364h-93.504c-6.272 0-11.403 5.131-11.403 11.403s5.131 11.403 11.403 11.403h139.23c6.272 0 11.403-5.131 11.403-11.403s-5.131-11.403-11.403-11.403h-22.92v-217.91h91.908l74.347 61.576-.798 156.107h-11.859c-6.272 0-11.403 5.131-11.403 11.403s5.131 11.403 11.403 11.403h23.148c6.272 0 11.403-5.017 11.403-11.289L760 220.705c-.114-3.421-1.596-6.728-4.219-8.895z"/></svg>