<svg xmlns="http://www.w3.org/2000/svg" width="512" height="512" viewBox="0 0 512 512"><g fill="#82A7CF"><path d="M454.193 49.548h-61.648L359.515 0h-207.03l-33.032 49.548H57.807C25.931 49.548 0 75.486 0 107.355V512h511.998V107.355c0-31.869-25.93-57.807-57.805-57.807zM161.322 16.516h189.356l27.624 41.439-74.256 118.808-36.617-36.624 85.496-93.267-12.18-11.164-12.676 13.84H183.932l-12.684-13.84-12.18 11.164 85.503 93.267-36.615 36.624-74.258-118.808 27.624-41.439zM256 128.174l-56.921-62.109h113.854L256 128.174zm-33.032 367.308H16.518V107.355c0-22.767 18.523-41.291 41.291-41.291h61.489l85.653 137.051 18.019-18.019v310.386h-.002zm272.514 0H239.484V168.58L256 152.064l51.051 51.051 85.653-137.051h61.489c22.767 0 41.291 18.523 41.291 41.291v388.127h-.002z"/><path d="M247.743 165.161h16.516v16.516h-16.516zm0 82.58h16.516v16.516h-16.516zm0 173.42h16.516v16.516h-16.516zm0-82.581h16.516v16.516h-16.516zm82.58 21.618l57.807 28.903 57.807-28.903V239.482H330.323v120.716zm16.515-71.166h57.807v-16.516h-57.807V256h82.582v16.516h-8.259v16.516h8.259v60.961l-41.291 20.646-41.291-20.646v-60.961zM41.291 90.839h16.516v16.516H41.291zm0 33.032h16.516v16.516H41.291zm107.355 99.097v-16.516c-27.326 0-49.548-22.222-49.548-49.548H82.582c0 27.326-22.222 49.548-49.548 49.548v16.516c27.326 0 49.548 22.222 49.548 49.548h16.516c0-27.326 22.222-49.548 49.548-49.548zm-57.807 17.589a66.581 66.581 0 0 0-25.848-25.848 66.522 66.522 0 0 0 25.848-25.848 66.581 66.581 0 0 0 25.848 25.848 66.535 66.535 0 0 0-25.848 25.848zm74.323 89.764h-16.516c0 22.767-18.523 41.291-41.291 41.291v16.516c22.767 0 41.291 18.523 41.291 41.291h16.516c0-22.767 18.523-41.291 41.291-41.291v-16.516c-22.77.001-41.291-18.524-41.291-41.291zm-8.258 69.343a58.272 58.272 0 0 0-19.795-19.795 58.272 58.272 0 0 0 19.795-19.795 58.272 58.272 0 0 0 19.795 19.795 58.369 58.369 0 0 0-19.795 19.795z"/></g></svg>